<svg xmlns="http://www.w3.org/2000/svg" viewBox="0 0 21.37 27.64"><defs><style>.cls-1{fill:#010101;}</style></defs><title>Candado</title><g id="Capa_2" data-name="Capa 2"><g id="Capa_1-2" data-name="Capa 1"><path class="cls-1" d="M21.37,13.81a3,3,0,0,0-3-3h-.14v-3a7.74,7.74,0,1,0-15.47,0v3a3.05,3.05,0,0,0-2.71,3V24.6a3.05,3.05,0,0,0,3.05,3H18.33a3,3,0,0,0,3-3ZM10.44,1.18A6.57,6.57,0,0,1,17,7.74v3.44H15.55V7.74a5.1,5.1,0,0,0-5.1-5.1h0a5.1,5.1,0,0,0-5.1,5.1v3.44H3.89V7.74A6.56,6.56,0,0,1,10.44,1.18Zm3.93,6.56v3H6.52v-3a3.93,3.93,0,0,1,3.92-3.93v0A3.93,3.93,0,0,1,14.37,7.74Zm4,18.71H3.05v0A1.87,1.87,0,0,1,1.18,24.6V13.82A1.87,1.87,0,0,1,3,12H18.33a1.87,1.87,0,0,1,1.86,1.87V24.59A1.87,1.87,0,0,1,18.33,26.45Z"/><path class="cls-1" d="M10.62,16.64h0a2,2,0,0,0-1.56.73,2.17,2.17,0,0,0,.51,3.28L9.17,23.2a1.26,1.26,0,0,0,1.07,1h.9a1.26,1.26,0,0,0,1.06-1l-.38-2.55a2.16,2.16,0,0,0,.82-2.78A2.21,2.21,0,0,0,10.62,16.64ZM11,19.75l-.34.13-.35-.13A1,1,0,0,1,10,18.09a.9.9,0,0,1,.67-.29,1,1,0,0,1,.93.54A1,1,0,0,1,11,19.75Z"/></g></g></svg>