<svg xmlns="http://www.w3.org/2000/svg" viewBox="0 0 452.72 326.5"><defs><style>.cls-1{fill:#eee;}.cls-2{fill:#6c63ff;opacity:0.1;isolation:isolate;}.cls-3{fill:#1c3660;}.cls-4,.cls-5{fill:none;stroke-miterlimit:10;}.cls-4{stroke:#fff;}.cls-5{stroke:#565987;}.cls-6{fill:#ffd037;}</style></defs><title>Sin fechas para hoy</title><g id="Capa_2" data-name="Capa 2"><g id="Capa_1-2" data-name="Capa 1"><path class="cls-1" d="M440.62,73.91c-18.09-29-48.57-49.32-81.53-54.5-29.74-4.66-61.08,3.1-85.72,20.91L278.8,36c-19.41,12.68-44.62,11.85-66.7,5.25s-42.36-18.37-63.88-26.73A219.61,219.61,0,0,0,92.11.9C64.69-2,34.06,1.52,15,22.05c-21.27,22.87-19.64,64.1,3.37,85.1,11.71,10.67,27,15.92,40.4,24.25s25.74,22.17,24.6,38.26c-1.06,14.9-13.31,26.32-26,33.48-9.81,5.55-21.87,11.6-23,23.09C33.16,237.34,43.31,246,53,251a112.82,112.82,0,0,0,102-.4c11.23-5.85,21.56-13.63,33.34-18.19,30.94-12,65,.08,97.78,4.49a208.77,208.77,0,0,0,83.16-5.66c16.22-4.47,32.5-11.31,43.9-24.05,8.18-9.22,13.32-20.83,18.14-32.31q7.69-18.37,14.78-37c2.83-7.46,5.63-15.06,6.37-23C453.84,100.39,448.24,86.1,440.62,73.91ZM121.94,76h-29a3,3,0,0,1,0-6h10a3,3,0,0,1,.95-4.13l.22-.12h-3.26a3,3,0,0,1,0-6h29a3,3,0,0,1,1.4,5.68h3.27a3,3,0,0,1,0,6h-10A3,3,0,0,1,121.94,76Zm47.81,42.93h-10a3,3,0,0,1-2.55,4.59h-29a3,3,0,0,1,0-6h9.95a3,3,0,0,1,1-4.13l.21-.12h-3.26a3,3,0,0,1,0-6h29a3,3,0,0,1,1.39,5.68h3.26a3,3,0,0,1,0,6ZM213.4,86.66l.47.73a7,7,0,0,1-3-.3,7.64,7.64,0,0,1-4-1.52l2.55-.43a6,6,0,0,1,1-3.1l1.69,2.65,4.55-.75A8,8,0,0,1,213.4,86.66Zm67,30.59.47.73a7.19,7.19,0,0,1-3-.29,7.73,7.73,0,0,1-4-1.53l2.55-.43a6.07,6.07,0,0,1,1-3.1l1.69,2.65,4.55-.75A8,8,0,0,1,280.38,117.25Zm52.8-25.18.47.73a6.86,6.86,0,0,1-2.95-.29,7.62,7.62,0,0,1-4-1.55l2.55-.42a6.1,6.1,0,0,1,1-3.11l1.69,2.66,4.55-.76A7.87,7.87,0,0,1,333.18,92.07ZM368.87,60.5h-9.95a3,3,0,0,1-2.55,4.59h-29a3,3,0,1,1,0-6h10a3,3,0,0,1,1-4.13l.22-.12h-3.26a3,3,0,1,1,0-6h29a3,3,0,0,1,1.39,5.68h3.22a3,3,0,1,1,0,6Z"/><ellipse class="cls-2" cx="49.22" cy="270.95" rx="12.2" ry="1.68"/><ellipse class="cls-2" cx="95.96" cy="275.69" rx="12.2" ry="1.68"/><ellipse class="cls-2" cx="151.02" cy="269.27" rx="12.2" ry="1.68"/><path class="cls-3" d="M96.22,275.31s-17.12-56.1,2.68-78.57c14.8-16.81,31.61-14.8,39.14-12.72a13.9,13.9,0,0,1,9,7.46c2.64,5.68,2.16,14.89-16.41,25.65-31.1,18-33,42.7-33,42.7Z"/><path class="cls-4" d="M135.36,192s-50.45,15.77-39.14,83.33"/><path class="cls-4" d="M105.89,197.63s7,4.68,4.74,11.72"/><path class="cls-4" d="M130.3,201.8s-4.25-4.32-9.42-1.94"/><path class="cls-4" d="M110.36,223.52s-7.46-3.78-9.39,1"/><path class="cls-4" d="M91.9,231.41s5.61-.45,5.7,2.23"/><path class="cls-3" d="M95.53,275.76s20-40.77,25.55-39.89c2.61.43,3.82,3,4.38,5.58a16.48,16.48,0,0,1-1.09,9.92C121.51,257.9,113.87,270.3,95.53,275.76Z"/><path class="cls-4" d="M120.93,243.61s-21,30.51-25.1,31.85"/><line class="cls-4" x1="122.86" y1="248.38" x2="117.95" y2="248.38"/><line class="cls-4" x1="116.98" y1="259.54" x2="109.29" y2="259.87"/><line class="cls-4" x1="112.3" y1="250.61" x2="113.14" y2="254.62"/><line class="cls-4" x1="104.11" y1="262.81" x2="104.26" y2="266.46"/><path class="cls-3" d="M96.12,275.76s-20-40.77-25.54-39.89c-2.62.43-3.82,3-4.38,5.58a16.33,16.33,0,0,0,1.09,9.92C70.15,257.9,77.79,270.3,96.12,275.76Z"/><path class="cls-4" d="M70.72,243.61s21,30.51,25.09,31.85"/><line class="cls-4" x1="68.79" y1="248.38" x2="73.7" y2="248.38"/><line class="cls-4" x1="74.67" y1="259.54" x2="82.37" y2="259.87"/><line class="cls-4" x1="79.36" y1="250.61" x2="78.52" y2="254.62"/><line class="cls-5" x1="87.54" y1="262.81" x2="87.39" y2="266.46"/><path class="cls-3" d="M130.54,285.28a3.53,3.53,0,0,0,1.14-1.72,1.52,1.52,0,0,0-.8-1.75c-.73-.28-1.51.23-2.11.74a2.81,2.81,0,0,1-2,1,3.14,3.14,0,0,0,1-2.92,1.18,1.18,0,0,0-.27-.59c-.39-.44-1.14-.25-1.63.09-1.55,1.09-2,3.19-2,5.08a10.41,10.41,0,0,1,0-2.09,2.12,2.12,0,0,0-.79-1.85,2.39,2.39,0,0,0-1.2-.29,2.49,2.49,0,0,0-1.94.56,1.94,1.94,0,0,0,.07,2.39,7.15,7.15,0,0,0,2,1.59,4.49,4.49,0,0,1,1.44,1.37,1.86,1.86,0,0,1,.1.25h4.36A12.5,12.5,0,0,0,130.54,285.28Z"/><path class="cls-3" d="M54.17,268.86a3.58,3.58,0,0,0,1.14-1.72,1.54,1.54,0,0,0-.8-1.76c-.73-.28-1.51.23-2.11.74a2.81,2.81,0,0,1-2,1,3.12,3.12,0,0,0,1-2.92,1.28,1.28,0,0,0-.27-.59c-.4-.44-1.14-.25-1.63.09-1.55,1.09-2,3.19-2,5.08a9.12,9.12,0,0,1,0-2.09,2.16,2.16,0,0,0-.8-1.85,2.36,2.36,0,0,0-1.19-.29,2.51,2.51,0,0,0-1.95.56,1.94,1.94,0,0,0,.08,2.39,8,8,0,0,0,2,1.61A4.49,4.49,0,0,1,47,270.47a1.12,1.12,0,0,1,.11.25h4.36A12.09,12.09,0,0,0,54.17,268.86Z"/><path class="cls-3" d="M79.62,285.28a3.53,3.53,0,0,0,1.14-1.72,1.52,1.52,0,0,0-.8-1.75c-.73-.28-1.51.23-2.11.74a2.81,2.81,0,0,1-2,1,3.11,3.11,0,0,0,1-2.92,1.18,1.18,0,0,0-.27-.59c-.4-.44-1.14-.25-1.63.09-1.55,1.09-2,3.19-2,5.08a9.12,9.12,0,0,1,0-2.09,2.12,2.12,0,0,0-.79-1.85,2.39,2.39,0,0,0-1.2-.29,2.49,2.49,0,0,0-1.94.56,1.94,1.94,0,0,0,.07,2.39,7.29,7.29,0,0,0,2,1.59,4.49,4.49,0,0,1,1.44,1.37,1.86,1.86,0,0,1,.1.25h4.38A12.14,12.14,0,0,0,79.62,285.28Z"/><path class="cls-3" d="M151.81,252.08s1.63,2.14-.76,5.37-4.36,6-3.56,8c0,0,3.61-6,6.54-6.07S155,255.69,151.81,252.08Z"/><path class="cls-3" d="M151.81,252.08a2.78,2.78,0,0,1,.33.67c2.86,3.37,4.38,6.51,1.64,6.59-2.57.07-5.64,4.65-6.37,5.81a1.14,1.14,0,0,0,.09.26s3.6-6,6.54-6.07S155,255.69,151.81,252.08Z"/><path class="cls-6" d="M154.85,254.81c0,.75-.09,1.36-.19,1.36s-.19-.61-.19-1.36.1-.4.21-.4S154.85,254.05,154.85,254.81Z"/><path class="cls-6" d="M155.88,255.69c-.66.36-1.23.58-1.28.49s.44-.46,1.11-.8.39-.1.45,0S156.55,255.35,155.88,255.69Z"/><path class="cls-3" d="M143.17,252.08s-1.63,2.14.76,5.37,4.37,6,3.58,8c0,0-3.61-6-6.54-6.07S140,255.69,143.17,252.08Z"/><path class="cls-3" d="M143.17,252.08a2.82,2.82,0,0,0-.34.67c-2.86,3.37-4.37,6.51-1.63,6.59,2.56.07,5.64,4.65,6.37,5.81a1.14,1.14,0,0,1-.09.26s-3.61-6-6.54-6.07S140,255.69,143.17,252.08Z"/><path class="cls-6" d="M140.13,254.81c0,.75.08,1.36.19,1.36s.19-.61.19-1.36-.11-.4-.21-.4S140.13,254.05,140.13,254.81Z"/><path class="cls-6" d="M139.09,255.69c.66.36,1.24.58,1.28.49s-.44-.46-1.1-.8-.4-.1-.45,0S138.43,255.35,139.09,255.69Z"/><path d="M102.92,305.22a1.11,1.11,0,0,1,.26.07,1,1,0,0,1,.22.16l.24.27,9.07,11.56c0-.28,0-.55-.06-.82s0-.51,0-.75V305.2h2.83v17.29H113.8a1.41,1.41,0,0,1-.63-.12,1.29,1.29,0,0,1-.49-.43l-9-11.51c0,.25,0,.51,0,.76s0,.48,0,.68v10.62h-2.83V305.2h1.68Z"/><path d="M124,310a6.58,6.58,0,0,1,2.49.44,5.24,5.24,0,0,1,1.91,1.25,5.56,5.56,0,0,1,1.22,2,8.2,8.2,0,0,1,0,5.24,5.6,5.6,0,0,1-1.22,2,5.16,5.16,0,0,1-1.91,1.27,6.58,6.58,0,0,1-2.49.44,6.7,6.7,0,0,1-2.5-.44A5.29,5.29,0,0,1,119.6,321a5.62,5.62,0,0,1-1.23-2,8.2,8.2,0,0,1,0-5.24,5.58,5.58,0,0,1,1.23-2,5.37,5.37,0,0,1,1.92-1.25A6.7,6.7,0,0,1,124,310Zm0,10.36a2.6,2.6,0,0,0,2.27-1,5.14,5.14,0,0,0,.73-3,5.26,5.26,0,0,0-.73-3,3,3,0,0,0-4.56,0,6.51,6.51,0,0,0,0,6A2.65,2.65,0,0,0,124,320.4Z"/><path d="M141,322.68a3.24,3.24,0,0,1-2.45-.9,3.47,3.47,0,0,1-.86-2.49v-6.85h-1.24a.6.6,0,0,1-.41-.16.57.57,0,0,1-.18-.46v-1.18l2-.32.62-3.35a.57.57,0,0,1,.22-.37.73.73,0,0,1,.43-.13h1.54v3.86h3.22v2.11h-3.22v6.65a1.28,1.28,0,0,0,.28.89,1,1,0,0,0,.77.32,1.56,1.56,0,0,0,.46-.06,1.92,1.92,0,0,0,.32-.14l.25-.14a.42.42,0,0,1,.21-.06.38.38,0,0,1,.22.06,1.25,1.25,0,0,1,.17.2l.89,1.44a4.52,4.52,0,0,1-1.48.81A5.65,5.65,0,0,1,141,322.68Z"/><path d="M149.83,306.65a1.75,1.75,0,0,1-.15.72,1.85,1.85,0,0,1-.41.58,2,2,0,0,1-.61.4,1.81,1.81,0,0,1-.74.15,1.79,1.79,0,0,1-.72-.15,1.76,1.76,0,0,1-.59-.4,1.82,1.82,0,0,1-.4-.58,1.75,1.75,0,0,1-.15-.72,1.85,1.85,0,0,1,.15-.74,1.91,1.91,0,0,1,.4-.6,1.76,1.76,0,0,1,.59-.4,1.79,1.79,0,0,1,.72-.15,1.81,1.81,0,0,1,.74.15,1.87,1.87,0,0,1,1,1A1.85,1.85,0,0,1,149.83,306.65Zm-.44,3.57v12.27h-2.95V310.22Z"/><path d="M157.8,310a6.1,6.1,0,0,1,2.13.36,4.65,4.65,0,0,1,1.68,1.09,4.84,4.84,0,0,1,1.1,1.74,6.45,6.45,0,0,1,.4,2.36,4.28,4.28,0,0,1,0,.56,1,1,0,0,1-.11.35.46.46,0,0,1-.21.18,1.06,1.06,0,0,1-.34.05h-7.58a4.22,4.22,0,0,0,1,2.77,3.17,3.17,0,0,0,2.34.89,4.08,4.08,0,0,0,1.24-.17,5.21,5.21,0,0,0,.91-.37l.68-.37a1.2,1.2,0,0,1,.57-.17.74.74,0,0,1,.31.07.76.76,0,0,1,.23.21l.86,1.07a4.52,4.52,0,0,1-1.1,1,6.53,6.53,0,0,1-1.27.63,8.16,8.16,0,0,1-1.36.33,10.13,10.13,0,0,1-1.33.09,6.66,6.66,0,0,1-2.38-.42,5.35,5.35,0,0,1-1.91-1.26,5.91,5.91,0,0,1-1.28-2.05,8,8,0,0,1-.47-2.84,6.86,6.86,0,0,1,.41-2.37,5.7,5.7,0,0,1,1.17-1.92,5.38,5.38,0,0,1,1.85-1.3A6.08,6.08,0,0,1,157.8,310Zm.06,2.11a2.71,2.71,0,0,0-2,.73,3.6,3.6,0,0,0-.94,2.07h5.55a3.76,3.76,0,0,0-.15-1.08,2.78,2.78,0,0,0-.48-.9,2.45,2.45,0,0,0-.81-.6A2.74,2.74,0,0,0,157.86,312.15Z"/><path d="M165.51,322.49V310.22h1.8a.73.73,0,0,1,.76.54l.2,1a8.37,8.37,0,0,1,.78-.69,5.33,5.33,0,0,1,.88-.54,4.38,4.38,0,0,1,1-.35,5.22,5.22,0,0,1,1.15-.11,4.52,4.52,0,0,1,1.78.33,3.59,3.59,0,0,1,1.3,1,4.16,4.16,0,0,1,.79,1.47,6.25,6.25,0,0,1,.27,1.89v7.8h-3v-7.8a2.6,2.6,0,0,0-.52-1.74,1.91,1.91,0,0,0-1.56-.62,3.08,3.08,0,0,0-1.43.35,5,5,0,0,0-1.27.94v8.87Z"/><path d="M184.17,310a6.12,6.12,0,0,1,2.14.36,4.65,4.65,0,0,1,1.68,1.09,5,5,0,0,1,1.1,1.74,6.67,6.67,0,0,1,.39,2.36,4.28,4.28,0,0,1,0,.56.8.8,0,0,1-.11.35.46.46,0,0,1-.21.18,1,1,0,0,1-.33.05h-7.58a4.22,4.22,0,0,0,1,2.77,3.17,3.17,0,0,0,2.34.89,4.13,4.13,0,0,0,1.24-.17,5.55,5.55,0,0,0,.91-.37l.68-.37a1.14,1.14,0,0,1,.57-.17.78.78,0,0,1,.31.07.73.73,0,0,1,.22.21l.86,1.07a4.35,4.35,0,0,1-1.1,1,6.26,6.26,0,0,1-1.27.63,7.82,7.82,0,0,1-1.35.33,10.25,10.25,0,0,1-1.33.09,6.58,6.58,0,0,1-2.38-.42A5.39,5.39,0,0,1,180,321a5.89,5.89,0,0,1-1.27-2.05,7.79,7.79,0,0,1-.47-2.84,6.64,6.64,0,0,1,.41-2.37,5.67,5.67,0,0,1,1.16-1.92,5.47,5.47,0,0,1,1.85-1.3A6.11,6.11,0,0,1,184.17,310Zm.06,2.11a2.72,2.72,0,0,0-2,.73,3.66,3.66,0,0,0-.93,2.07h5.55a3.44,3.44,0,0,0-.16-1.08,2.44,2.44,0,0,0-.48-.9,2.26,2.26,0,0,0-.81-.6A2.74,2.74,0,0,0,184.23,312.15Z"/><path d="M199.17,312.62a1,1,0,0,1-.26.27.65.65,0,0,1-.33.07,1.05,1.05,0,0,1-.46-.12l-.57-.27a4.14,4.14,0,0,0-.73-.26,3.55,3.55,0,0,0-1-.12,2.23,2.23,0,0,0-1.37.37,1.14,1.14,0,0,0-.51,1,.93.93,0,0,0,.26.66,2.21,2.21,0,0,0,.68.47,6.78,6.78,0,0,0,1,.37c.35.1.72.22,1.09.35s.75.27,1.11.43a4.19,4.19,0,0,1,1,.63,2.75,2.75,0,0,1,.94,2.17,4,4,0,0,1-.33,1.63,3.52,3.52,0,0,1-.94,1.29,4.48,4.48,0,0,1-1.54.85,6.74,6.74,0,0,1-2.1.3,6.25,6.25,0,0,1-1.23-.11,7.06,7.06,0,0,1-1.16-.32,6.08,6.08,0,0,1-1-.47,5.55,5.55,0,0,1-.83-.6l.68-1.13a1,1,0,0,1,.31-.31.88.88,0,0,1,.45-.11,1,1,0,0,1,.52.16c.17.1.36.22.57.33a4.93,4.93,0,0,0,.76.34,3.43,3.43,0,0,0,1.11.16,3,3,0,0,0,.9-.13,1.74,1.74,0,0,0,.62-.33,1.17,1.17,0,0,0,.36-.47,1.36,1.36,0,0,0,.11-.56,1,1,0,0,0-.25-.7,2.07,2.07,0,0,0-.68-.48,6.78,6.78,0,0,0-1-.37c-.37-.1-.74-.22-1.11-.35a9.7,9.7,0,0,1-1.12-.45,3.78,3.78,0,0,1-1-.65,2.76,2.76,0,0,1-.69-1,3.37,3.37,0,0,1-.25-1.38,3.54,3.54,0,0,1,.3-1.44,3.48,3.48,0,0,1,.87-1.19,4.31,4.31,0,0,1,1.45-.81,6.76,6.76,0,0,1,4.31.11,5.29,5.29,0,0,1,1.73,1.1Z"/><path d="M215.57,312.82a1.27,1.27,0,0,1-.26.26.53.53,0,0,1-.36.1.82.82,0,0,1-.44-.14l-.52-.31a4.31,4.31,0,0,0-.71-.31,3.35,3.35,0,0,0-1-.14,3.13,3.13,0,0,0-1.37.28,2.62,2.62,0,0,0-1,.81,3.63,3.63,0,0,0-.58,1.27,6.75,6.75,0,0,0-.19,1.7,6.58,6.58,0,0,0,.21,1.74,3.85,3.85,0,0,0,.6,1.29,2.57,2.57,0,0,0,1,.78,2.89,2.89,0,0,0,1.27.27,3,3,0,0,0,1.14-.17,3.8,3.8,0,0,0,.73-.38l.52-.38a.79.79,0,0,1,.5-.18.59.59,0,0,1,.54.28l.85,1.07a4.8,4.8,0,0,1-1.07,1,5.92,5.92,0,0,1-1.19.63,6.77,6.77,0,0,1-1.27.33,9.58,9.58,0,0,1-1.3.09,5.48,5.48,0,0,1-2.14-.42,5.17,5.17,0,0,1-1.76-1.24,6.11,6.11,0,0,1-1.18-2,8.33,8.33,0,0,1-.05-5.19,5.8,5.8,0,0,1,1.14-2,5.37,5.37,0,0,1,1.87-1.32,6.39,6.39,0,0,1,2.56-.47,6,6,0,0,1,2.41.44,5.78,5.78,0,0,1,1.86,1.26Z"/><path d="M221.94,306.65a1.75,1.75,0,0,1-.15.72,2.06,2.06,0,0,1-.42.58,1.91,1.91,0,0,1-.6.4,1.85,1.85,0,0,1-.74.15,1.8,1.8,0,0,1-.73-.15,1.92,1.92,0,0,1-1-1,1.75,1.75,0,0,1-.15-.72,1.85,1.85,0,0,1,.15-.74,2.1,2.1,0,0,1,.4-.6,2,2,0,0,1,.59-.4,1.8,1.8,0,0,1,.73-.15,1.85,1.85,0,0,1,.74.15,1.91,1.91,0,0,1,.6.4,2.15,2.15,0,0,1,.42.6A1.85,1.85,0,0,1,221.94,306.65Zm-.44,3.57v12.27h-2.95V310.22Z"/><path d="M228.86,322.68a3.24,3.24,0,0,1-2.45-.9,3.47,3.47,0,0,1-.86-2.49v-6.85h-1.24a.6.6,0,0,1-.41-.16.57.57,0,0,1-.18-.46v-1.18l2-.32.62-3.35a.57.57,0,0,1,.22-.37.74.74,0,0,1,.44-.13h1.53v3.86h3.22v2.11h-3.22v6.65a1.28,1.28,0,0,0,.28.89,1,1,0,0,0,.77.32,1.56,1.56,0,0,0,.46-.06,1.92,1.92,0,0,0,.32-.14l.25-.14a.42.42,0,0,1,.21-.06.38.38,0,0,1,.22.06,2,2,0,0,1,.18.2l.88,1.44a4.52,4.52,0,0,1-1.48.81A5.65,5.65,0,0,1,228.86,322.68Z"/><path d="M243.7,322.49h-1.32a1.5,1.5,0,0,1-.66-.12.85.85,0,0,1-.36-.51l-.26-.87a10.84,10.84,0,0,1-.92.73,5.41,5.41,0,0,1-.93.53,4.6,4.6,0,0,1-1,.33,6.33,6.33,0,0,1-1.2.1,4.66,4.66,0,0,1-1.43-.21,3,3,0,0,1-1.13-.63,2.82,2.82,0,0,1-.74-1,3.83,3.83,0,0,1-.26-1.45,2.93,2.93,0,0,1,.36-1.38,3.54,3.54,0,0,1,1.22-1.22,7.8,7.8,0,0,1,2.26-.9,14.43,14.43,0,0,1,3.5-.36v-.73a2.7,2.7,0,0,0-.52-1.83,1.89,1.89,0,0,0-1.51-.6,3.47,3.47,0,0,0-1.2.17,4.59,4.59,0,0,0-.83.37l-.65.38a1.35,1.35,0,0,1-.66.17.8.8,0,0,1-.51-.16,1.16,1.16,0,0,1-.35-.38l-.54-.94a7.27,7.27,0,0,1,5.11-1.94,5,5,0,0,1,1.92.35,4.14,4.14,0,0,1,1.43,1,4.33,4.33,0,0,1,.89,1.5,5.84,5.84,0,0,1,.3,1.91ZM238,320.65a4.36,4.36,0,0,0,.84-.08,3.4,3.4,0,0,0,.72-.25,3.75,3.75,0,0,0,.66-.4,6.56,6.56,0,0,0,.64-.57v-2.06a12.89,12.89,0,0,0-2.16.16,5.63,5.63,0,0,0-1.39.42,1.79,1.79,0,0,0-.75.59,1.3,1.3,0,0,0-.22.73,1.27,1.27,0,0,0,.46,1.12A2,2,0,0,0,238,320.65Z"/><path d="M253.89,312.62a.94.94,0,0,1-.25.27.69.69,0,0,1-.34.07,1.09,1.09,0,0,1-.46-.12l-.57-.27a4.14,4.14,0,0,0-.73-.26,3.52,3.52,0,0,0-1-.12,2.24,2.24,0,0,0-1.38.37,1.15,1.15,0,0,0-.5,1,.89.89,0,0,0,.26.66,2.09,2.09,0,0,0,.68.47,6.21,6.21,0,0,0,1,.37c.36.1.72.22,1.1.35s.74.27,1.1.43a4,4,0,0,1,1,.63,2.75,2.75,0,0,1,.94,2.17,4.16,4.16,0,0,1-.32,1.63,3.55,3.55,0,0,1-1,1.29,4.35,4.35,0,0,1-1.53.85,6.74,6.74,0,0,1-2.1.3,6.36,6.36,0,0,1-1.24-.11,7.35,7.35,0,0,1-1.16-.32,6.46,6.46,0,0,1-1-.47,6.11,6.11,0,0,1-.83-.6l.68-1.13a1,1,0,0,1,.31-.31.89.89,0,0,1,.46-.11,1,1,0,0,1,.52.16c.16.1.35.22.57.33a4.19,4.19,0,0,0,.76.34,3.41,3.41,0,0,0,1.1.16,3,3,0,0,0,.9-.13,1.88,1.88,0,0,0,.63-.33,1.14,1.14,0,0,0,.35-.47,1.38,1.38,0,0,0,.12-.56,1,1,0,0,0-.26-.7A2.07,2.07,0,0,0,251,318a6.35,6.35,0,0,0-1-.37c-.36-.1-.73-.22-1.11-.35a8.89,8.89,0,0,1-1.11-.45,3.66,3.66,0,0,1-1-.65,2.87,2.87,0,0,1-.68-1,3.36,3.36,0,0,1-.26-1.38,3.54,3.54,0,0,1,.3-1.44,3.39,3.39,0,0,1,.88-1.19,4.26,4.26,0,0,1,1.44-.81,6.79,6.79,0,0,1,4.32.11,5.29,5.29,0,0,1,1.73,1.1Z"/><path d="M261.67,326.5V310.22h1.81a.88.88,0,0,1,.49.14.63.63,0,0,1,.26.4l.24,1.14a5.87,5.87,0,0,1,1.7-1.37,4.58,4.58,0,0,1,2.26-.53,4,4,0,0,1,1.83.42,4.15,4.15,0,0,1,1.44,1.21,5.85,5.85,0,0,1,.93,2,9.85,9.85,0,0,1,.33,2.67,8.63,8.63,0,0,1-.37,2.55,6.22,6.22,0,0,1-1.06,2,4.81,4.81,0,0,1-1.66,1.35,4.88,4.88,0,0,1-2.18.48,4.42,4.42,0,0,1-1.77-.31,4.54,4.54,0,0,1-1.29-.88v5Zm5.74-14.17a3,3,0,0,0-1.57.39,4.39,4.39,0,0,0-1.21,1.09v5.5a2.66,2.66,0,0,0,1.09.87,3.34,3.34,0,0,0,1.27.24,2.86,2.86,0,0,0,1.22-.25,2.31,2.31,0,0,0,.92-.76,4,4,0,0,0,.58-1.3,7.7,7.7,0,0,0,.2-1.85,8.6,8.6,0,0,0-.17-1.82,3.47,3.47,0,0,0-.5-1.21,2,2,0,0,0-.78-.69A2.52,2.52,0,0,0,267.41,312.33Z"/><path d="M284.81,322.49h-1.33a1.5,1.5,0,0,1-.66-.12.85.85,0,0,1-.36-.51l-.26-.87a10.77,10.77,0,0,1-.91.73,5.41,5.41,0,0,1-.93.53,4.87,4.87,0,0,1-1,.33,6.22,6.22,0,0,1-1.19.1,4.73,4.73,0,0,1-1.44-.21,3.12,3.12,0,0,1-1.13-.63,2.8,2.8,0,0,1-.73-1,3.64,3.64,0,0,1-.27-1.45A2.94,2.94,0,0,1,275,318a3.51,3.51,0,0,1,1.21-1.22,7.92,7.92,0,0,1,2.26-.9,14.46,14.46,0,0,1,3.51-.36v-.73a2.76,2.76,0,0,0-.52-1.83,1.92,1.92,0,0,0-1.52-.6,3.44,3.44,0,0,0-1.19.17,4.3,4.3,0,0,0-.83.37l-.66.38a1.29,1.29,0,0,1-.65.17.85.85,0,0,1-.52-.16,1.12,1.12,0,0,1-.34-.38l-.54-.94a7.25,7.25,0,0,1,5.1-1.94,5,5,0,0,1,1.92.35,4,4,0,0,1,1.43,1,4.18,4.18,0,0,1,.89,1.5,5.59,5.59,0,0,1,.31,1.91Zm-5.74-1.84a4.44,4.44,0,0,0,.84-.08,3.61,3.61,0,0,0,.72-.25,3.75,3.75,0,0,0,.66-.4,8,8,0,0,0,.64-.57v-2.06a12.89,12.89,0,0,0-2.16.16,5.63,5.63,0,0,0-1.39.42,1.73,1.73,0,0,0-.75.59,1.3,1.3,0,0,0-.22.73,1.27,1.27,0,0,0,.46,1.12A1.92,1.92,0,0,0,279.07,320.65Z"/><path d="M287.71,322.49V310.22h1.74a.93.93,0,0,1,.63.17,1,1,0,0,1,.24.58l.18,1.48a5.7,5.7,0,0,1,1.54-1.79,3.24,3.24,0,0,1,2-.66,2.55,2.55,0,0,1,1.5.42l-.38,2.21a.44.44,0,0,1-.16.3.51.51,0,0,1-.32.09,1.81,1.81,0,0,1-.49-.08,3.1,3.1,0,0,0-.82-.08,2.55,2.55,0,0,0-1.58.5,3.91,3.91,0,0,0-1.11,1.49v7.64Z"/><path d="M306.75,322.49h-1.33a1.5,1.5,0,0,1-.66-.12.85.85,0,0,1-.36-.51l-.26-.87a10.77,10.77,0,0,1-.91.73,5.41,5.41,0,0,1-.93.53,4.87,4.87,0,0,1-1,.33,6.22,6.22,0,0,1-1.19.1,4.73,4.73,0,0,1-1.44-.21,3.12,3.12,0,0,1-1.13-.63,2.8,2.8,0,0,1-.73-1,3.64,3.64,0,0,1-.27-1.45,2.94,2.94,0,0,1,.37-1.38,3.51,3.51,0,0,1,1.21-1.22,7.92,7.92,0,0,1,2.26-.9,14.46,14.46,0,0,1,3.51-.36v-.73a2.7,2.7,0,0,0-.53-1.83,1.88,1.88,0,0,0-1.51-.6,3.41,3.41,0,0,0-1.19.17,4.3,4.3,0,0,0-.83.37l-.66.38a1.29,1.29,0,0,1-.65.17.85.85,0,0,1-.52-.16,1.12,1.12,0,0,1-.34-.38l-.54-.94a7.25,7.25,0,0,1,5.1-1.94,5,5,0,0,1,1.92.35,4.14,4.14,0,0,1,1.43,1,4.18,4.18,0,0,1,.89,1.5,5.59,5.59,0,0,1,.31,1.91ZM301,320.65a4.25,4.25,0,0,0,.83-.08,3.49,3.49,0,0,0,.73-.25,4.65,4.65,0,0,0,.66-.4,8,8,0,0,0,.64-.57v-2.06a12.81,12.81,0,0,0-2.16.16,5.87,5.87,0,0,0-1.4.42,1.7,1.7,0,0,0-.74.59,1.3,1.3,0,0,0-.22.73,1.27,1.27,0,0,0,.46,1.12A1.92,1.92,0,0,0,301,320.65Z"/><path d="M314.27,322.49V304.73h3v6.82a6.32,6.32,0,0,1,1.58-1.1,5.08,5.08,0,0,1,3.8-.08,3.59,3.59,0,0,1,1.3,1,4.32,4.32,0,0,1,.79,1.47,6.25,6.25,0,0,1,.27,1.89v7.8h-3v-7.8a2.6,2.6,0,0,0-.52-1.74,1.91,1.91,0,0,0-1.56-.62,3.05,3.05,0,0,0-1.43.35,5,5,0,0,0-1.27.94v8.87Z"/><path d="M333.1,310a6.61,6.61,0,0,1,2.49.44,5.33,5.33,0,0,1,1.91,1.25,5.7,5.7,0,0,1,1.22,2,8.2,8.2,0,0,1,0,5.24,5.75,5.75,0,0,1-1.22,2,5.25,5.25,0,0,1-1.91,1.27,7.29,7.29,0,0,1-5,0,5.29,5.29,0,0,1-1.92-1.27,5.62,5.62,0,0,1-1.23-2,8,8,0,0,1,0-5.24,5.58,5.58,0,0,1,1.23-2,5.37,5.37,0,0,1,1.92-1.25A6.66,6.66,0,0,1,333.1,310Zm0,10.36a2.58,2.58,0,0,0,2.26-1,5.14,5.14,0,0,0,.74-3,5.25,5.25,0,0,0-.74-3,2.58,2.58,0,0,0-2.26-1,2.63,2.63,0,0,0-2.3,1,6.51,6.51,0,0,0,0,6A2.66,2.66,0,0,0,333.1,320.4Z"/><path d="M345.41,325.87a1.12,1.12,0,0,1-.34.47,1.09,1.09,0,0,1-.64.16h-2.2l2.3-4.92-5-11.36h2.58a.82.82,0,0,1,.55.17,1.11,1.11,0,0,1,.29.39l2.61,6.36a4.41,4.41,0,0,1,.23.64c.06.23.12.45.17.67.06-.23.13-.45.21-.67s.16-.43.24-.66l2.47-6.34a.81.81,0,0,1,.31-.4.9.9,0,0,1,.5-.16h2.37Z"/></g></g></svg>