<svg xmlns="http://www.w3.org/2000/svg" viewBox="0 0 375.79 242.82"><defs><style>.cls-1{fill:#3f3d56;}.cls-2{fill:#f2f2f2;}.cls-3{fill:#1c3660;}.cls-4{fill:#2f2e41;}</style></defs><title>Sin rango de fechas_1</title><g id="Capa_2" data-name="Capa 2"><g id="Capa_1-2" data-name="Capa 1"><path d="M1.85,223.33l.23.07a.81.81,0,0,1,.2.14l.21.24,8.19,10.44-.06-.74c0-.24,0-.47,0-.68v-9.48h2.56v15.6h-1.5a1.28,1.28,0,0,1-.58-.11,1.36,1.36,0,0,1-.44-.38L2.49,228c0,.23,0,.46,0,.69s0,.43,0,.62v9.58H0v-15.6H1.85Z"/><path d="M20.89,227.68a6,6,0,0,1,2.25.4,4.77,4.77,0,0,1,1.73,1.13A5.14,5.14,0,0,1,26,231a7.58,7.58,0,0,1,0,4.74,5.19,5.19,0,0,1-1.1,1.8,4.81,4.81,0,0,1-1.73,1.15,6.53,6.53,0,0,1-4.5,0,4.73,4.73,0,0,1-1.73-1.15,5.23,5.23,0,0,1-1.12-1.8,7.4,7.4,0,0,1,0-4.74,5.19,5.19,0,0,1,1.12-1.79,4.69,4.69,0,0,1,1.73-1.13A6,6,0,0,1,20.89,227.68Zm0,9.35a2.34,2.34,0,0,0,2.05-.92,6,6,0,0,0,0-5.45,2.33,2.33,0,0,0-2.05-.94,2.37,2.37,0,0,0-2.07.94,4.74,4.74,0,0,0-.67,2.73,4.67,4.67,0,0,0,.67,2.71A2.39,2.39,0,0,0,20.89,237Z"/><path d="M32.6,238.92v-16h2.67v6.16a5.5,5.5,0,0,1,1.42-1,4,4,0,0,1,1.83-.38,3.84,3.84,0,0,1,1.6.31,3.08,3.08,0,0,1,1.17.86,3.63,3.63,0,0,1,.72,1.33,5.68,5.68,0,0,1,.24,1.7v7H39.58v-7a2.37,2.37,0,0,0-.46-1.57,1.77,1.77,0,0,0-1.41-.56,2.89,2.89,0,0,0-1.3.31,4.75,4.75,0,0,0-1.14.86v8Z"/><path d="M53.55,238.92h-1.2a1.22,1.22,0,0,1-.59-.11.76.76,0,0,1-.33-.46l-.23-.79a7.87,7.87,0,0,1-.83.67,5.39,5.39,0,0,1-.83.48,4.69,4.69,0,0,1-.92.29,6,6,0,0,1-1.08.1,4.49,4.49,0,0,1-1.3-.19,3,3,0,0,1-1-.57,2.66,2.66,0,0,1-.66-.94,3.36,3.36,0,0,1-.24-1.31,2.56,2.56,0,0,1,.33-1.24,3.14,3.14,0,0,1,1.1-1.11,7,7,0,0,1,2-.82A13.37,13.37,0,0,1,51,232.6V232a2.49,2.49,0,0,0-.47-1.66,1.71,1.71,0,0,0-1.37-.54,3.24,3.24,0,0,0-1.07.15,4.41,4.41,0,0,0-.75.34l-.59.34a1.21,1.21,0,0,1-.6.15.72.72,0,0,1-.46-.14,1.12,1.12,0,0,1-.31-.34l-.49-.86a6.6,6.6,0,0,1,4.61-1.74,4.49,4.49,0,0,1,1.73.31,3.72,3.72,0,0,1,1.29.89,3.81,3.81,0,0,1,.8,1.35,5.06,5.06,0,0,1,.28,1.73Zm-5.18-1.66a3.54,3.54,0,0,0,.75-.07,2.86,2.86,0,0,0,.66-.23,4.05,4.05,0,0,0,.59-.36,6.62,6.62,0,0,0,.58-.52v-1.85a10.58,10.58,0,0,0-2,.15,5,5,0,0,0-1.26.37,1.63,1.63,0,0,0-.67.53,1.25,1.25,0,0,0-.2.67,1.17,1.17,0,0,0,.42,1A1.77,1.77,0,0,0,48.37,237.26Z"/><path d="M62.75,230a.76.76,0,0,1-.23.24.56.56,0,0,1-.3.07.88.88,0,0,1-.42-.11l-.51-.24a4.73,4.73,0,0,0-.67-.24,3.18,3.18,0,0,0-.87-.11,2,2,0,0,0-1.25.34,1,1,0,0,0-.45.87.85.85,0,0,0,.23.6,2.33,2.33,0,0,0,.62.43,5.13,5.13,0,0,0,.87.32l1,.32c.34.12.67.25,1,.4a3,3,0,0,1,.87.56,2.61,2.61,0,0,1,.62.81,2.68,2.68,0,0,1,.23,1.15,3.74,3.74,0,0,1-.29,1.47,3.17,3.17,0,0,1-.86,1.16,3.84,3.84,0,0,1-1.38.77,6.08,6.08,0,0,1-1.9.28,6.81,6.81,0,0,1-2.16-.39,6.12,6.12,0,0,1-.93-.43,5.56,5.56,0,0,1-.75-.54l.62-1a.93.93,0,0,1,.28-.28.83.83,0,0,1,.41-.1.92.92,0,0,1,.47.14,5.23,5.23,0,0,0,.51.31,4.91,4.91,0,0,0,.68.3,3.17,3.17,0,0,0,1,.14,2.81,2.81,0,0,0,.82-.11,2,2,0,0,0,.56-.3,1.1,1.1,0,0,0,.32-.43,1.24,1.24,0,0,0,.1-.5.88.88,0,0,0-.23-.64,2.07,2.07,0,0,0-.61-.43,6.79,6.79,0,0,0-.88-.33l-1-.31a8.74,8.74,0,0,1-1-.41,3.31,3.31,0,0,1-.88-.59,2.73,2.73,0,0,1-.61-.87,3,3,0,0,1-.23-1.25,3.35,3.35,0,0,1,.26-1.3,3,3,0,0,1,.8-1.07,4,4,0,0,1,1.3-.74,5.6,5.6,0,0,1,1.81-.27,5.35,5.35,0,0,1,2.08.38,4.68,4.68,0,0,1,1.57,1Z"/><path d="M76.34,230a.65.65,0,0,1-.22.24.57.57,0,0,1-.31.07.84.84,0,0,1-.41-.11l-.51-.24a4.73,4.73,0,0,0-.67-.24,3.25,3.25,0,0,0-.88-.11,2,2,0,0,0-1.24.34,1,1,0,0,0-.45.87.85.85,0,0,0,.23.6,2.33,2.33,0,0,0,.62.43,5.34,5.34,0,0,0,.86.32l1,.32c.34.12.67.25,1,.4a3.32,3.32,0,0,1,.87.56,2.58,2.58,0,0,1,.61.81,2.54,2.54,0,0,1,.24,1.15,3.58,3.58,0,0,1-.3,1.47,3,3,0,0,1-.85,1.16,3.93,3.93,0,0,1-1.38.77,6.17,6.17,0,0,1-1.9.28,6,6,0,0,1-1.12-.11,5.89,5.89,0,0,1-1-.28,5.7,5.7,0,0,1-.93-.43,4.52,4.52,0,0,1-.75-.54l.61-1a1.06,1.06,0,0,1,.28-.28.87.87,0,0,1,.88,0c.15.1.32.2.52.31a4.91,4.91,0,0,0,.68.3,3.17,3.17,0,0,0,1,.14,2.69,2.69,0,0,0,.81-.11,1.91,1.91,0,0,0,.57-.3,1.21,1.21,0,0,0,.32-.43,1.24,1.24,0,0,0,.1-.5.88.88,0,0,0-.23-.64,2.07,2.07,0,0,0-.61-.43,6.79,6.79,0,0,0-.88-.33c-.33-.09-.66-.2-1-.31a9.71,9.71,0,0,1-1-.41,3.43,3.43,0,0,1-.87-.59,2.75,2.75,0,0,1-.62-.87,3.13,3.13,0,0,1-.23-1.25,3.19,3.19,0,0,1,.27-1.3,3,3,0,0,1,.8-1.07,3.89,3.89,0,0,1,1.3-.74,5.56,5.56,0,0,1,1.81-.27,5.35,5.35,0,0,1,2.08.38,4.68,4.68,0,0,1,1.57,1Z"/><path d="M83.78,227.68a5.37,5.37,0,0,1,1.92.33,4.24,4.24,0,0,1,1.52,1,4.43,4.43,0,0,1,1,1.57,6,6,0,0,1,.36,2.14,3.53,3.53,0,0,1,0,.5,1,1,0,0,1-.09.31.41.41,0,0,1-.19.16.69.69,0,0,1-.31.05H81.11a3.86,3.86,0,0,0,.92,2.51,2.86,2.86,0,0,0,2.11.79,3.66,3.66,0,0,0,1.12-.15,5.37,5.37,0,0,0,.82-.33c.24-.12.44-.24.62-.34a1,1,0,0,1,.51-.15.51.51,0,0,1,.28.07.6.6,0,0,1,.21.18l.77,1a4.08,4.08,0,0,1-1,.87,5.82,5.82,0,0,1-1.15.56,6.59,6.59,0,0,1-1.22.3,8.28,8.28,0,0,1-1.2.09,5.83,5.83,0,0,1-2.15-.39A4.77,4.77,0,0,1,80,237.57a5.28,5.28,0,0,1-1.15-1.86,7.16,7.16,0,0,1-.42-2.56,6.19,6.19,0,0,1,.36-2.13,5.12,5.12,0,0,1,1.06-1.74,4.93,4.93,0,0,1,1.67-1.17A5.48,5.48,0,0,1,83.78,227.68Zm0,1.91a2.45,2.45,0,0,0-1.82.66,3.22,3.22,0,0,0-.84,1.86h5a3.08,3.08,0,0,0-.14-1,2.11,2.11,0,0,0-.43-.81,2,2,0,0,0-.73-.54A2.41,2.41,0,0,0,83.83,229.59Z"/><path d="M93.58,222.89v16H90.91v-16Z"/><path d="M101.16,227.68a5.47,5.47,0,0,1,1.93.33,4.33,4.33,0,0,1,1.52,1,4.57,4.57,0,0,1,1,1.57,6,6,0,0,1,.36,2.14,3.53,3.53,0,0,1,0,.5.75.75,0,0,1-.1.31.37.37,0,0,1-.19.16.67.67,0,0,1-.3.05H98.5a3.81,3.81,0,0,0,.92,2.51,2.84,2.84,0,0,0,2.11.79,3.75,3.75,0,0,0,1.12-.15,5.82,5.82,0,0,0,.82-.33l.61-.34a1.06,1.06,0,0,1,.52-.15.53.53,0,0,1,.28.07.57.57,0,0,1,.2.18l.78,1a4.49,4.49,0,0,1-1,.87,5.82,5.82,0,0,1-1.15.56,6.59,6.59,0,0,1-1.22.3,8.53,8.53,0,0,1-1.21.09,5.77,5.77,0,0,1-2.14-.39,4.68,4.68,0,0,1-1.73-1.13,5.3,5.3,0,0,1-1.16-1.86,7.16,7.16,0,0,1-.42-2.56,6,6,0,0,1,.37-2.13,4.94,4.94,0,0,1,1.05-1.74,5.13,5.13,0,0,1,1.67-1.17A5.51,5.51,0,0,1,101.16,227.68Zm.06,1.91a2.47,2.47,0,0,0-1.83.66,3.29,3.29,0,0,0-.84,1.86h5a3.39,3.39,0,0,0-.14-1,2.25,2.25,0,0,0-.43-.81,2,2,0,0,0-.74-.54A2.37,2.37,0,0,0,101.22,229.59Z"/><path d="M115.9,230.19a1.06,1.06,0,0,1-.23.24.5.5,0,0,1-.33.09.7.7,0,0,1-.4-.13l-.46-.28a3.5,3.5,0,0,0-.64-.28,3.07,3.07,0,0,0-.92-.12,2.79,2.79,0,0,0-1.23.25,2.23,2.23,0,0,0-.88.73,3.3,3.3,0,0,0-.53,1.15,6.45,6.45,0,0,0-.17,1.53,5.77,5.77,0,0,0,.19,1.57,3.37,3.37,0,0,0,.54,1.16,2.38,2.38,0,0,0,.87.71,2.48,2.48,0,0,0,1.14.25,2.89,2.89,0,0,0,1-.16,2.71,2.71,0,0,0,.66-.35c.18-.12.34-.24.47-.34a.77.77,0,0,1,.45-.16.56.56,0,0,1,.49.25l.76,1a4.35,4.35,0,0,1-1,.87,5.21,5.21,0,0,1-1.07.56,5.56,5.56,0,0,1-1.15.3,7.91,7.91,0,0,1-1.18.09,4.86,4.86,0,0,1-1.93-.39,4.58,4.58,0,0,1-1.58-1.11,5.51,5.51,0,0,1-1.07-1.8,7,7,0,0,1-.39-2.42,7.09,7.09,0,0,1,.35-2.26,5.12,5.12,0,0,1,1-1.81,4.88,4.88,0,0,1,1.68-1.19,5.77,5.77,0,0,1,2.31-.43,5.44,5.44,0,0,1,2.18.4,5.38,5.38,0,0,1,1.68,1.14Z"/><path d="M126.2,230.19a1.79,1.79,0,0,1-.23.24.54.54,0,0,1-.33.09.68.68,0,0,1-.4-.13l-.46-.28a3.62,3.62,0,0,0-.65-.28,3,3,0,0,0-.92-.12A2.79,2.79,0,0,0,122,230a2.3,2.3,0,0,0-.88.73,3.28,3.28,0,0,0-.52,1.15,6,6,0,0,0-.18,1.53,6.19,6.19,0,0,0,.19,1.57,3.38,3.38,0,0,0,.55,1.16,2.34,2.34,0,0,0,.86.71,2.52,2.52,0,0,0,1.15.25,3,3,0,0,0,1-.16,2.91,2.91,0,0,0,.66-.35c.18-.12.34-.24.47-.34a.73.73,0,0,1,.45-.16.55.55,0,0,1,.48.25l.77,1a4.85,4.85,0,0,1-1,.87,5.28,5.28,0,0,1-1.08.56,5.63,5.63,0,0,1-1.14.3,7.91,7.91,0,0,1-1.18.09,4.82,4.82,0,0,1-1.93-.39,4.49,4.49,0,0,1-1.58-1.11,5.35,5.35,0,0,1-1.07-1.8,7,7,0,0,1-.4-2.42,7.09,7.09,0,0,1,.35-2.26,5.14,5.14,0,0,1,1-1.81,4.79,4.79,0,0,1,1.68-1.19,5.77,5.77,0,0,1,2.31-.43,5.39,5.39,0,0,1,2.17.4,5.27,5.27,0,0,1,1.68,1.14Z"/><path d="M132,224.62a1.44,1.44,0,0,1-.14.65,1.8,1.8,0,0,1-.37.53,1.75,1.75,0,0,1-.55.36,1.63,1.63,0,0,1-.66.14,1.66,1.66,0,0,1-.66-.14,1.71,1.71,0,0,1-.89-.89,1.58,1.58,0,0,1-.14-.65,1.71,1.71,0,0,1,.14-.67,1.77,1.77,0,0,1,.36-.53,1.64,1.64,0,0,1,.53-.37,1.65,1.65,0,0,1,.66-.13,1.69,1.69,0,0,1,1.21.5,1.8,1.8,0,0,1,.37.53A1.55,1.55,0,0,1,132,224.62Zm-.4,3.23v11.07h-2.66V227.85Z"/><path d="M139.29,227.68a6,6,0,0,1,2.25.4,4.73,4.73,0,0,1,1.72,1.13,5,5,0,0,1,1.1,1.79,7.4,7.4,0,0,1,0,4.74,5,5,0,0,1-1.1,1.8,4.78,4.78,0,0,1-1.72,1.15,6.17,6.17,0,0,1-2.25.4,6.27,6.27,0,0,1-2.26-.4,4.9,4.9,0,0,1-1.73-1.15,5.06,5.06,0,0,1-1.11-1.8,7.4,7.4,0,0,1,0-4.74,5,5,0,0,1,1.11-1.79,4.86,4.86,0,0,1,1.73-1.13A6.06,6.06,0,0,1,139.29,227.68Zm0,9.35a2.33,2.33,0,0,0,2-.92,5.88,5.88,0,0,0,0-5.45,2.31,2.31,0,0,0-2-.94,2.35,2.35,0,0,0-2.07.94,4.66,4.66,0,0,0-.67,2.73,4.6,4.6,0,0,0,.67,2.71A2.36,2.36,0,0,0,139.29,237Z"/><path d="M146.83,238.92V227.85h1.63a.64.64,0,0,1,.68.49l.19.87a6.86,6.86,0,0,1,.7-.63,5.73,5.73,0,0,1,.79-.48,3.75,3.75,0,0,1,.89-.31,4.26,4.26,0,0,1,1-.11,3.92,3.92,0,0,1,1.61.31,3.24,3.24,0,0,1,1.17.86,3.77,3.77,0,0,1,.71,1.33,5.68,5.68,0,0,1,.24,1.7v7h-2.66v-7a2.37,2.37,0,0,0-.47-1.57,1.77,1.77,0,0,0-1.41-.56,2.93,2.93,0,0,0-1.3.31,4.75,4.75,0,0,0-1.14.86v8Z"/><path d="M167.78,238.92h-1.2a1.22,1.22,0,0,1-.59-.11.75.75,0,0,1-.32-.46l-.24-.79a7.87,7.87,0,0,1-.83.67,5.39,5.39,0,0,1-.83.48,4.69,4.69,0,0,1-.92.29,5.84,5.84,0,0,1-1.08.1,4.49,4.49,0,0,1-1.3-.19,2.86,2.86,0,0,1-1-.57,2.56,2.56,0,0,1-.67-.94,3.36,3.36,0,0,1-.24-1.31,2.56,2.56,0,0,1,.33-1.24,3.14,3.14,0,0,1,1.1-1.11,7,7,0,0,1,2-.82,13.37,13.37,0,0,1,3.16-.32V232a2.49,2.49,0,0,0-.47-1.66,1.71,1.71,0,0,0-1.36-.54,3.26,3.26,0,0,0-1.08.15,4.41,4.41,0,0,0-.75.34l-.59.34a1.21,1.21,0,0,1-.6.15.72.72,0,0,1-.46-.14,1.12,1.12,0,0,1-.31-.34l-.49-.86a6.62,6.62,0,0,1,4.61-1.74,4.45,4.45,0,0,1,1.73.31,3.72,3.72,0,0,1,1.29.89,4,4,0,0,1,.81,1.35,5.32,5.32,0,0,1,.27,1.73Zm-5.18-1.66a3.64,3.64,0,0,0,.76-.07A3,3,0,0,0,164,237a4.05,4.05,0,0,0,.59-.36,5.43,5.43,0,0,0,.58-.52v-1.85a10.58,10.58,0,0,0-2,.15,5,5,0,0,0-1.26.37,1.63,1.63,0,0,0-.67.53,1.25,1.25,0,0,0-.2.67,1.17,1.17,0,0,0,.42,1A1.77,1.77,0,0,0,162.6,237.26Z"/><path d="M178.2,238.92a.66.66,0,0,1-.69-.48l-.21-1.07a6.76,6.76,0,0,1-.72.7,4.84,4.84,0,0,1-.82.54,4.05,4.05,0,0,1-.94.35,4.57,4.57,0,0,1-1.08.13,3.65,3.65,0,0,1-1.66-.38,3.6,3.6,0,0,1-1.3-1.1,5.21,5.21,0,0,1-.85-1.77,9.33,9.33,0,0,1-.29-2.42,7.68,7.68,0,0,1,.33-2.29,5.41,5.41,0,0,1,1-1.83,4.51,4.51,0,0,1,1.5-1.22,4.35,4.35,0,0,1,2-.43,3.81,3.81,0,0,1,1.58.29,4.1,4.1,0,0,1,1.18.8v-5.85h2.66v16ZM174.64,237a2.65,2.65,0,0,0,1.42-.35,4.13,4.13,0,0,0,1.1-1v-5a2.55,2.55,0,0,0-1-.78,2.91,2.91,0,0,0-1.15-.23,2.56,2.56,0,0,0-1.09.23,2,2,0,0,0-.83.69,3.2,3.2,0,0,0-.53,1.16,6.83,6.83,0,0,0-.18,1.67,7.57,7.57,0,0,0,.15,1.64,3.47,3.47,0,0,0,.45,1.11,1.68,1.68,0,0,0,.72.61A2.18,2.18,0,0,0,174.64,237Z"/><path d="M187.43,227.68a6,6,0,0,1,2.25.4,4.65,4.65,0,0,1,1.72,1.13,4.87,4.87,0,0,1,1.1,1.79,7.4,7.4,0,0,1,0,4.74,4.91,4.91,0,0,1-1.1,1.8,4.69,4.69,0,0,1-1.72,1.15,6.53,6.53,0,0,1-4.5,0,4.73,4.73,0,0,1-1.73-1.15,5.23,5.23,0,0,1-1.12-1.8,7.4,7.4,0,0,1,0-4.74,5.19,5.19,0,0,1,1.12-1.79,4.69,4.69,0,0,1,1.73-1.13A6,6,0,0,1,187.43,227.68Zm0,9.35a2.34,2.34,0,0,0,2-.92,6,6,0,0,0,0-5.45,2.33,2.33,0,0,0-2-.94,2.37,2.37,0,0,0-2.07.94,4.66,4.66,0,0,0-.67,2.73,4.6,4.6,0,0,0,.67,2.71A2.39,2.39,0,0,0,187.43,237Z"/><path d="M201.58,227.85v7a2.39,2.39,0,0,0,.47,1.57,1.73,1.73,0,0,0,1.41.55,2.84,2.84,0,0,0,1.29-.3,4.56,4.56,0,0,0,1.15-.85v-8h2.66v11.07h-1.63a.66.66,0,0,1-.68-.48l-.18-.89a8.22,8.22,0,0,1-.71.63,4.61,4.61,0,0,1-.78.49,4.34,4.34,0,0,1-.9.31,4.22,4.22,0,0,1-1,.12,4,4,0,0,1-1.6-.31,3.21,3.21,0,0,1-1.17-.87,3.71,3.71,0,0,1-.72-1.33,5.72,5.72,0,0,1-.24-1.7v-7Z"/><path d="M211.41,238.92V227.85H213a.65.65,0,0,1,.68.49l.19.87a6,6,0,0,1,.7-.63,5.73,5.73,0,0,1,.79-.48,3.75,3.75,0,0,1,.89-.31,4.26,4.26,0,0,1,1-.11,3.84,3.84,0,0,1,1.6.31,3.08,3.08,0,0,1,1.17.86,3.63,3.63,0,0,1,.72,1.33,5.68,5.68,0,0,1,.24,1.7v7h-2.67v-7a2.32,2.32,0,0,0-.47-1.57,1.73,1.73,0,0,0-1.4-.56,2.89,2.89,0,0,0-1.3.31,4.75,4.75,0,0,0-1.14.86v8Z"/><path d="M227.85,238.92V227.85h1.56a.86.86,0,0,1,.58.15.87.87,0,0,1,.21.52l.16,1.34a5.33,5.33,0,0,1,1.39-1.62,2.92,2.92,0,0,1,1.8-.59,2.34,2.34,0,0,1,1.36.37l-.35,2a.44.44,0,0,1-.14.28.5.5,0,0,1-.29.08,1.79,1.79,0,0,1-.44-.08,3.07,3.07,0,0,0-.75-.07,2.27,2.27,0,0,0-1.42.45,3.63,3.63,0,0,0-1,1.35v6.89Z"/><path d="M245,238.92h-1.2a1.22,1.22,0,0,1-.59-.11.76.76,0,0,1-.33-.46l-.23-.79a7.87,7.87,0,0,1-.83.67,5,5,0,0,1-.84.48,4.4,4.4,0,0,1-.91.29,6,6,0,0,1-1.08.1,4.49,4.49,0,0,1-1.3-.19,3,3,0,0,1-1-.57,2.66,2.66,0,0,1-.66-.94,3.36,3.36,0,0,1-.24-1.31,2.56,2.56,0,0,1,.33-1.24,3.14,3.14,0,0,1,1.1-1.11,7,7,0,0,1,2-.82,13.37,13.37,0,0,1,3.16-.32V232a2.49,2.49,0,0,0-.47-1.66,1.71,1.71,0,0,0-1.37-.54,3.35,3.35,0,0,0-1.08.15,5.26,5.26,0,0,0-.75.34l-.58.34a1.21,1.21,0,0,1-.6.15.72.72,0,0,1-.46-.14,1,1,0,0,1-.31-.34l-.49-.86a6.6,6.6,0,0,1,4.61-1.74,4.49,4.49,0,0,1,1.73.31,3.72,3.72,0,0,1,1.29.89,3.81,3.81,0,0,1,.8,1.35,5.06,5.06,0,0,1,.28,1.73Zm-5.18-1.66a3.54,3.54,0,0,0,.75-.07,3,3,0,0,0,.66-.23,4.05,4.05,0,0,0,.59-.36,6.62,6.62,0,0,0,.58-.52v-1.85a10.58,10.58,0,0,0-2,.15,5,5,0,0,0-1.26.37,1.63,1.63,0,0,0-.67.53,1.25,1.25,0,0,0-.2.67,1.19,1.19,0,0,0,.41,1A1.83,1.83,0,0,0,239.85,237.26Z"/><path d="M247.65,238.92V227.85h1.63a.65.65,0,0,1,.68.49l.18.87a7,7,0,0,1,.71-.63,5.73,5.73,0,0,1,.79-.48,3.75,3.75,0,0,1,.89-.31,4.26,4.26,0,0,1,1-.11,3.84,3.84,0,0,1,1.6.31,3.08,3.08,0,0,1,1.17.86,3.78,3.78,0,0,1,.72,1.33,5.68,5.68,0,0,1,.24,1.7v7h-2.67v-7a2.32,2.32,0,0,0-.47-1.57,1.73,1.73,0,0,0-1.4-.56,2.86,2.86,0,0,0-1.3.31,4.75,4.75,0,0,0-1.14.86v8Z"/><path d="M263.75,227.66a6.33,6.33,0,0,1,1.34.14,4.64,4.64,0,0,1,1.15.43h3.18v1a.53.53,0,0,1-.13.39.78.78,0,0,1-.44.19l-1,.19a2.7,2.7,0,0,1,.17.59,3.52,3.52,0,0,1,.06.66,3.26,3.26,0,0,1-1.24,2.61,4.15,4.15,0,0,1-1.37.72,5.54,5.54,0,0,1-1.72.25,6.16,6.16,0,0,1-1.22-.12.88.88,0,0,0-.51.71.51.51,0,0,0,.3.49,2.61,2.61,0,0,0,.81.23,9.82,9.82,0,0,0,1.14.06c.43,0,.86,0,1.31.06a9.25,9.25,0,0,1,1.3.19,3.85,3.85,0,0,1,1.14.42,2.3,2.3,0,0,1,.81.8,2.42,2.42,0,0,1,.31,1.29,3.06,3.06,0,0,1-.36,1.43,3.72,3.72,0,0,1-1,1.24,5.55,5.55,0,0,1-1.68.87,7.16,7.16,0,0,1-2.26.33,8.86,8.86,0,0,1-2.2-.24,5.3,5.3,0,0,1-1.53-.65,2.91,2.91,0,0,1-.92-.93,2.22,2.22,0,0,1-.3-1.1,1.87,1.87,0,0,1,.48-1.31,3.23,3.23,0,0,1,1.31-.84,1.7,1.7,0,0,1-.9-1.59,1.86,1.86,0,0,1,.08-.51,2.21,2.21,0,0,1,.27-.53,2.9,2.9,0,0,1,.45-.49,3.26,3.26,0,0,1,.63-.41,3.51,3.51,0,0,1-1.32-1.21,3.21,3.21,0,0,1-.48-1.77,3.27,3.27,0,0,1,1.25-2.62,4.26,4.26,0,0,1,1.39-.72A6.12,6.12,0,0,1,263.75,227.66Zm2.93,11.73a.77.77,0,0,0-.2-.54,1.27,1.27,0,0,0-.53-.33,4.57,4.57,0,0,0-.78-.17,9.41,9.41,0,0,0-.95,0h-1a4.34,4.34,0,0,1-1-.12,2.18,2.18,0,0,0-.73.59,1.15,1.15,0,0,0-.28.78,1,1,0,0,0,.15.54,1.15,1.15,0,0,0,.46.44,2.85,2.85,0,0,0,.83.29,6.27,6.27,0,0,0,1.24.1,5.92,5.92,0,0,0,1.28-.12,2.72,2.72,0,0,0,.89-.32,1.19,1.19,0,0,0,.68-1.09Zm-2.93-6.27a2.56,2.56,0,0,0,.87-.14,1.78,1.78,0,0,0,.61-.37,1.54,1.54,0,0,0,.36-.57,2,2,0,0,0,.13-.74,1.77,1.77,0,0,0-.49-1.3,2.51,2.51,0,0,0-3,0,1.73,1.73,0,0,0-.49,1.3,2.19,2.19,0,0,0,.12.73,1.85,1.85,0,0,0,.37.58,1.69,1.69,0,0,0,.61.37A2.54,2.54,0,0,0,263.75,233.12Z"/><path d="M275.82,227.68a6,6,0,0,1,2.25.4,4.73,4.73,0,0,1,1.72,1.13,5.14,5.14,0,0,1,1.1,1.79,7.4,7.4,0,0,1,0,4.74,5.19,5.19,0,0,1-1.1,1.8,4.78,4.78,0,0,1-1.72,1.15,6.17,6.17,0,0,1-2.25.4,6.27,6.27,0,0,1-2.26-.4,4.9,4.9,0,0,1-1.73-1.15,5.06,5.06,0,0,1-1.11-1.8,7.4,7.4,0,0,1,0-4.74,5,5,0,0,1,1.11-1.79,4.86,4.86,0,0,1,1.73-1.13A6.06,6.06,0,0,1,275.82,227.68Zm0,9.35a2.33,2.33,0,0,0,2-.92,5.88,5.88,0,0,0,0-5.45,2.31,2.31,0,0,0-2-.94,2.35,2.35,0,0,0-2.07.94,4.66,4.66,0,0,0-.67,2.73,4.6,4.6,0,0,0,.67,2.71A2.36,2.36,0,0,0,275.82,237Z"/><path d="M295.32,238.92a.65.65,0,0,1-.68-.48l-.22-1.07a6.76,6.76,0,0,1-.72.7A4.28,4.28,0,0,1,292,239a4.72,4.72,0,0,1-1.09.13,3.6,3.6,0,0,1-3-1.48,5.39,5.39,0,0,1-.84-1.77,8.9,8.9,0,0,1-.3-2.42,7.37,7.37,0,0,1,.34-2.29,5.41,5.41,0,0,1,1-1.83,4.26,4.26,0,0,1,3.46-1.65,3.83,3.83,0,0,1,1.59.29,4.06,4.06,0,0,1,1.17.8v-5.85H297v16ZM291.77,237a2.64,2.64,0,0,0,1.41-.35,4,4,0,0,0,1.1-1v-5a2.55,2.55,0,0,0-1-.78,2.87,2.87,0,0,0-1.14-.23,2.61,2.61,0,0,0-1.1.23,2.11,2.11,0,0,0-.83.69,3.19,3.19,0,0,0-.52,1.16,6.34,6.34,0,0,0-.19,1.67,6.94,6.94,0,0,0,.16,1.64,3.07,3.07,0,0,0,.45,1.11,1.65,1.65,0,0,0,.71.61A2.19,2.19,0,0,0,291.77,237Z"/><path d="M304.41,227.68a5.41,5.41,0,0,1,1.92.33,4.33,4.33,0,0,1,1.52,1,4.57,4.57,0,0,1,1,1.57,6,6,0,0,1,.36,2.14,3.53,3.53,0,0,1,0,.5.75.75,0,0,1-.1.31.33.33,0,0,1-.19.16.67.67,0,0,1-.3.05h-6.84a3.81,3.81,0,0,0,.92,2.51,2.84,2.84,0,0,0,2.11.79,3.7,3.7,0,0,0,1.12-.15,5.37,5.37,0,0,0,.82-.33l.62-.34a1,1,0,0,1,.51-.15.51.51,0,0,1,.28.07.49.49,0,0,1,.2.18l.78,1a4.49,4.49,0,0,1-1,.87,5.82,5.82,0,0,1-1.15.56,6.59,6.59,0,0,1-1.22.3,8.5,8.5,0,0,1-1.2.09,5.83,5.83,0,0,1-2.15-.39,4.77,4.77,0,0,1-1.73-1.13,5.28,5.28,0,0,1-1.15-1.86,7.15,7.15,0,0,1-.43-2.56,6.19,6.19,0,0,1,.37-2.13,5.26,5.26,0,0,1,1.05-1.74,5.07,5.07,0,0,1,1.68-1.17A5.44,5.44,0,0,1,304.41,227.68Zm0,1.91a2.43,2.43,0,0,0-1.82.66,3.29,3.29,0,0,0-.85,1.86h5a3.39,3.39,0,0,0-.14-1,2.25,2.25,0,0,0-.43-.81,2,2,0,0,0-.73-.54A2.41,2.41,0,0,0,304.46,229.59Z"/><path d="M316,238.92v-9.06l-1-.15a1.09,1.09,0,0,1-.51-.22.58.58,0,0,1-.18-.45V228H316v-.82a4.83,4.83,0,0,1,.28-1.71,3.61,3.61,0,0,1,.82-1.28,3.67,3.67,0,0,1,1.3-.81,5.32,5.32,0,0,1,3.15-.08l-.05,1.34a.38.38,0,0,1-.29.39,2.35,2.35,0,0,1-.63.08,3.07,3.07,0,0,0-.84.1,1.49,1.49,0,0,0-.63.35,1.6,1.6,0,0,0-.4.67,3.4,3.4,0,0,0-.13,1V228h2.88v1.9h-2.8v9.07Z"/><path d="M327.67,227.68a5.47,5.47,0,0,1,1.93.33,4.42,4.42,0,0,1,1.52,1,4.57,4.57,0,0,1,1,1.57,6.2,6.2,0,0,1,.35,2.14,3.7,3.7,0,0,1,0,.5.75.75,0,0,1-.1.31.37.37,0,0,1-.19.16.67.67,0,0,1-.3.05H325a3.86,3.86,0,0,0,.91,2.51A2.88,2.88,0,0,0,328,237a3.75,3.75,0,0,0,1.12-.15,5.82,5.82,0,0,0,.82-.33l.61-.34a1.06,1.06,0,0,1,.51-.15.49.49,0,0,1,.28.07.6.6,0,0,1,.21.18l.78,1a4.32,4.32,0,0,1-1,.87,5.56,5.56,0,0,1-1.15.56,6.22,6.22,0,0,1-1.22.3,8.28,8.28,0,0,1-1.2.09,5.86,5.86,0,0,1-2.15-.39,4.73,4.73,0,0,1-1.72-1.13,5.3,5.3,0,0,1-1.16-1.86,7.16,7.16,0,0,1-.42-2.56,6,6,0,0,1,.37-2.13,4.94,4.94,0,0,1,1-1.74,5.13,5.13,0,0,1,1.67-1.17A5.48,5.48,0,0,1,327.67,227.68Zm.06,1.91a2.47,2.47,0,0,0-1.83.66,3.22,3.22,0,0,0-.84,1.86h5a3.39,3.39,0,0,0-.14-1,2.42,2.42,0,0,0-.43-.81,2,2,0,0,0-.74-.54A2.37,2.37,0,0,0,327.73,229.59Z"/><path d="M342.41,230.19a1.33,1.33,0,0,1-.23.24.5.5,0,0,1-.33.09.7.7,0,0,1-.4-.13l-.46-.28a3.84,3.84,0,0,0-.64-.28,3.09,3.09,0,0,0-.93-.12,2.85,2.85,0,0,0-1.23.25,2.38,2.38,0,0,0-.88.73,3.47,3.47,0,0,0-.52,1.15,6.45,6.45,0,0,0-.17,1.53,5.77,5.77,0,0,0,.19,1.57,3.2,3.2,0,0,0,.54,1.16,2.38,2.38,0,0,0,.87.71,2.45,2.45,0,0,0,1.14.25,2.7,2.7,0,0,0,1.69-.51c.18-.12.34-.24.47-.34a.77.77,0,0,1,.45-.16.56.56,0,0,1,.49.25l.76,1a4.35,4.35,0,0,1-1,.87,5.21,5.21,0,0,1-1.07.56,5.73,5.73,0,0,1-1.15.3,7.91,7.91,0,0,1-1.18.09,4.86,4.86,0,0,1-1.93-.39,4.58,4.58,0,0,1-1.58-1.11,5.35,5.35,0,0,1-1.07-1.8,7,7,0,0,1-.39-2.42,6.82,6.82,0,0,1,.35-2.26,5.12,5.12,0,0,1,1-1.81,4.79,4.79,0,0,1,1.68-1.19,5.77,5.77,0,0,1,2.31-.43,5.47,5.47,0,0,1,2.18.4,5.38,5.38,0,0,1,1.68,1.14Z"/><path d="M344.93,238.92v-16h2.66v6.16a5.73,5.73,0,0,1,1.43-1,4,4,0,0,1,1.82-.38,3.89,3.89,0,0,1,1.61.31,3.08,3.08,0,0,1,1.17.86,3.77,3.77,0,0,1,.71,1.33,5.37,5.37,0,0,1,.25,1.7v7h-2.67v-7a2.37,2.37,0,0,0-.47-1.57,1.74,1.74,0,0,0-1.41-.56,2.85,2.85,0,0,0-1.29.31,4.61,4.61,0,0,0-1.15.86v8Z"/><path d="M365.88,238.92h-1.2a1.26,1.26,0,0,1-.6-.11.75.75,0,0,1-.32-.46l-.24-.79a7.8,7.8,0,0,1-.82.67,5,5,0,0,1-.84.48,4.49,4.49,0,0,1-.92.29,5.84,5.84,0,0,1-1.08.1,4.42,4.42,0,0,1-1.29-.19,2.82,2.82,0,0,1-1-.57,2.56,2.56,0,0,1-.67-.94,3.56,3.56,0,0,1-.23-1.31,2.56,2.56,0,0,1,.33-1.24,3.1,3.1,0,0,1,1.09-1.11,7,7,0,0,1,2-.82,13.37,13.37,0,0,1,3.16-.32V232a2.44,2.44,0,0,0-.47-1.66,1.69,1.69,0,0,0-1.36-.54,3.35,3.35,0,0,0-1.08.15,4.41,4.41,0,0,0-.75.34l-.59.34a1.2,1.2,0,0,1-.59.15.75.75,0,0,1-.47-.14,1.12,1.12,0,0,1-.31-.34l-.48-.86a6.57,6.57,0,0,1,4.6-1.74,4.54,4.54,0,0,1,1.74.31,3.92,3.92,0,0,1,1.29.89,3.81,3.81,0,0,1,.8,1.35,5.32,5.32,0,0,1,.28,1.73Zm-5.19-1.66a3.57,3.57,0,0,0,.76-.07,2.78,2.78,0,0,0,.65-.23,3.67,3.67,0,0,0,.6-.36,5.37,5.37,0,0,0,.57-.52v-1.85a10.54,10.54,0,0,0-1.94.15,4.77,4.77,0,0,0-1.26.37,1.66,1.66,0,0,0-.68.53,1.25,1.25,0,0,0-.2.67,1.17,1.17,0,0,0,.42,1A1.81,1.81,0,0,0,360.69,237.26Z"/><path d="M375.07,230a.67.67,0,0,1-.23.24.56.56,0,0,1-.3.07.82.82,0,0,1-.41-.11l-.52-.24a4.18,4.18,0,0,0-.66-.24,3.25,3.25,0,0,0-.88-.11,2,2,0,0,0-1.24.34,1,1,0,0,0-.45.87.81.81,0,0,0,.23.6,2.27,2.27,0,0,0,.61.43,5.86,5.86,0,0,0,.87.32l1,.32c.34.12.67.25,1,.4a3.32,3.32,0,0,1,.87.56,2.58,2.58,0,0,1,.61.81,2.54,2.54,0,0,1,.23,1.15,3.57,3.57,0,0,1-.29,1.47,3.15,3.15,0,0,1-.85,1.16,3.89,3.89,0,0,1-1.39.77,6.06,6.06,0,0,1-1.89.28,6.68,6.68,0,0,1-2.16-.39,5.7,5.7,0,0,1-.93-.43,4.52,4.52,0,0,1-.75-.54l.61-1a.93.93,0,0,1,.28-.28.86.86,0,0,1,.41-.1.89.89,0,0,1,.47.14l.51.31a5.69,5.69,0,0,0,.69.3,3.08,3.08,0,0,0,1,.14,2.73,2.73,0,0,0,.81-.11,1.74,1.74,0,0,0,.56-.3,1.13,1.13,0,0,0,.33-.43,1.24,1.24,0,0,0,.1-.5.93.93,0,0,0-.23-.64,2.12,2.12,0,0,0-.62-.43,6.12,6.12,0,0,0-.87-.33c-.33-.09-.66-.2-1-.31a8.89,8.89,0,0,1-1-.41,3.11,3.11,0,0,1-.87-.59,2.75,2.75,0,0,1-.62-.87,3.13,3.13,0,0,1-.23-1.25,3.19,3.19,0,0,1,.27-1.3,3,3,0,0,1,.79-1.07,4,4,0,0,1,1.31-.74,5.52,5.52,0,0,1,1.81-.27,5.39,5.39,0,0,1,2.08.38,4.54,4.54,0,0,1,1.56,1Z"/><path id="ab4f3350-d584-452d-9eac-b0b73bd1c74e-278" class="cls-1" d="M109,76.7a16.29,16.29,0,1,1,16.29-16.28A16.29,16.29,0,0,1,109,76.7Zm0-32a15.73,15.73,0,1,0,15.73,15.73h0A15.73,15.73,0,0,0,109,44.69Z"/><path id="b38c2432-9b55-44a1-a6c5-37f262cb8526-279" class="cls-1" d="M274.1,76.7a16.29,16.29,0,1,1,16.29-16.28A16.28,16.28,0,0,1,274.1,76.7Zm0-32a15.73,15.73,0,1,0,15.72,15.73A15.73,15.73,0,0,0,274.1,44.69Z"/><path id="b9a1c0cd-2b1d-41a9-871b-afddc5e936af-280" class="cls-1" d="M333.73,38.9H50c-5.53,0-10,5.54-10,12.37V186.54c0,6.82,4.48,12.35,10,12.36H333.73c5.53,0,10-5.54,10-12.36V51.27c0-6.83-4.48-12.36-10-12.37Zm8.83,147.64c0,6-3.95,10.9-8.83,10.91H50c-4.88,0-8.83-4.89-8.83-10.91V51.27c0-6,3.95-10.91,8.83-10.91H333.73c4.88,0,8.82,4.88,8.83,10.91Z"/><rect id="a89ccb60-c26f-4785-b3c5-3332740adbf1" class="cls-2" x="60.79" y="93.31" width="50.41" height="35.29"/><rect id="b7e05322-8b5b-4202-896a-d010557e20ee" class="cls-2" x="131.37" y="93.31" width="50.41" height="35.29"/><rect id="ad37576e-0400-4032-9a23-fea9f12fbce1" class="cls-2" x="201.95" y="93.31" width="50.41" height="35.29"/><rect id="aa533c7f-257d-4f82-9a34-f3791ed05f8e" class="cls-2" x="272.53" y="93.31" width="50.41" height="35.29"/><rect id="ab695b59-e86b-4a87-812a-08bf740c05b4" class="cls-2" x="60.79" y="144.98" width="50.41" height="35.29"/><rect id="a6c88313-aaf4-41f2-8928-a742f49a0902" class="cls-2" x="131.37" y="144.98" width="50.41" height="35.29"/><rect id="f58c3339-a4c0-4d62-ba2a-e54ff2bf716d" class="cls-2" x="201.95" y="144.98" width="50.41" height="35.29"/><rect id="a422fb6a-8004-41fc-ab64-b502da5703c1" class="cls-2" x="272.53" y="144.98" width="50.41" height="35.29"/><path id="e86106fc-25bd-447d-bb7e-e20bb3b23e30-281" class="cls-3" d="M148.16,180.07l-11.9-16.44,3.24-2.34,9.11,12.58,34.86-35.82,2.87,2.79Z"/><path id="aa2d9f48-069a-485a-b75e-c70dd332b5e8-282" class="cls-3" d="M219.37,128.39,207.47,112l3.24-2.35,9.11,12.58,34.86-35.81,2.87,2.79Z"/><rect id="a17708df-8f3a-464e-8619-6278c337a09b" class="cls-4" x="108.34" width="0.86" height="60.49"/><rect id="e9aa34a1-352e-42c8-a0fd-7deef0e48a7e" class="cls-4" x="274.08" width="0.86" height="60.49"/><path id="ba3ff805-5da2-4d08-bd39-7111d50a55d9-284" class="cls-3" d="M78.21,128.39,66.31,112l3.24-2.35,9.11,12.58,34.86-35.81,2.87,2.79Z"/></g></g></svg>