<svg xmlns="http://www.w3.org/2000/svg" viewBox="0 0 19.7 20.38"><defs><style>.cls-1{fill:#fff;}</style></defs><title>Agenda_1</title><g id="Capa_2" data-name="Capa 2"><g id="Capa_1-2" data-name="Capa 1"><path class="cls-1" d="M19.1,1.19H15.16V.6A.6.6,0,1,0,14,.6v.59H10.45V.6a.6.6,0,1,0-1.2,0v.59H5.89V.6a.6.6,0,0,0-.6-.6.6.6,0,0,0-.6.6v.59H.6a.6.6,0,0,0-.6.6V15.37a.6.6,0,0,0,.6.6H4.29a5.71,5.71,0,0,0,11.12,0H19.1a.6.6,0,0,0,.6-.6V1.79a.6.6,0,0,0-.6-.6ZM4.69,2.39v.55a.6.6,0,0,0,.6.6.6.6,0,0,0,.6-.6V2.39H9.25v.55a.6.6,0,0,0,1.2,0V2.39H14v.55a.6.6,0,1,0,1.2,0V2.39h3.33V4.85H1.2V2.39ZM9.85,19.18a4.51,4.51,0,1,1,4.51-4.51A4.52,4.52,0,0,1,9.85,19.18Zm5.71-4.41v-.1a5.71,5.71,0,1,0-11.42,0v.1H1.2V6.05H18.49v8.72Z"/><path class="cls-1" d="M10.45,14.82V11.91a.6.6,0,1,0-1.2,0v3.16a.59.59,0,0,0,.17.42l1.38,1.38a.6.6,0,0,0,.43.18.58.58,0,0,0,.42-.18.59.59,0,0,0,0-.85l-1.2-1.2Z"/></g></g></svg>