<svg xmlns="http://www.w3.org/2000/svg" viewBox="0 0 101.2 33.01"><defs><style>.cls-1,.cls-2{fill:#fff;}.cls-2{font-size:16.67px;font-family:HiraKakuStd-W8-83pv-RKSJ-H, Hiragino Kaku Gothic Std;}</style></defs><title>Axess Logo</title><g id="Capa_2" data-name="Capa 2"><g id="Capa_1-2" data-name="Capa 1"><rect class="cls-1" x="-1.16" y="7.61" width="24.34" height="6.81" transform="translate(-4.56 11.01) rotate(-45)"/><path class="cls-1" d="M22.78,7,7,22.74a1,1,0,0,0,0,1.44L14.88,32a3.37,3.37,0,0,0,4.77,0L31,20.68a4.89,4.89,0,0,0,0-6.92L30.27,13a1,1,0,0,0-1.45,0L18.41,23.45a1,1,0,0,1-1.44,0h0A1,1,0,0,1,17,22L27.34,11.64a1,1,0,0,0,0-1.43L24.23,7A1,1,0,0,0,22.78,7Z"/><text class="cls-2" transform="translate(33.91 23.7)">AXESS</text></g></g></svg>