<svg xmlns="http://www.w3.org/2000/svg" xmlns:xlink="http://www.w3.org/1999/xlink" viewBox="0 0 228.19 66.55"><defs><style>.cls-1{fill:url(#Degradado_sin_nombre_2);}.cls-2{fill:url(#Degradado_sin_nombre_2-2);}.cls-3{fill:#1e1e1c;}</style><linearGradient id="Degradado_sin_nombre_2" x1="-0.01" y1="40.4" x2="43.65" y2="40.4" gradientTransform="matrix(1, 0, 0, -1, 0.01, 62.6)" gradientUnits="userSpaceOnUse"><stop offset="0" stop-color="#142035"/><stop offset="0.16" stop-color="#294562"/><stop offset="0.36" stop-color="#3e6b8f"/><stop offset="0.55" stop-color="#4f89b3"/><stop offset="0.72" stop-color="#5b9ecd"/><stop offset="0.88" stop-color="#62abdd"/><stop offset="1" stop-color="#65b0e2"/></linearGradient><linearGradient id="Degradado_sin_nombre_2-2" x1="12.86" y1="22.54" x2="64.63" y2="22.54" gradientTransform="matrix(1, 0, 0, -1, 0, 62.59)" xlink:href="#Degradado_sin_nombre_2"/></defs><title>Recurso 1</title><g id="Capa_2" data-name="Capa 2"><g id="Capa_1-2" data-name="Capa 1"><path class="cls-1" d="M.52,33.43,34,0h0l9.7,9.7h0L9,44.39H9L.52,36a1.8,1.8,0,0,1,0-2.53Z"/><path class="cls-2" d="M45.17,14.13,13.46,45.85a2.05,2.05,0,0,0,0,2.9L29.27,64.56a6.79,6.79,0,0,0,9.61,0h0L61.75,41.7a9.87,9.87,0,0,0,0-13.94h0L60.28,26.3a2.05,2.05,0,0,0-2.9,0l-21,21a2,2,0,0,1-2.9,0h0a2,2,0,0,1,0-2.9l20.9-20.9a2.06,2.06,0,0,0,0-2.89L48.1,14.17a2.06,2.06,0,0,0-2.91-.06Z"/><path class="cls-3" d="M91.84,54.55a33.11,33.11,0,0,0-1-4.37l-1.1-3.44H78.25l-1.09,3.44a22,22,0,0,0-1,4.37H66.67a37.93,37.93,0,0,0,1.94-4.93l8.75-24.38a26.74,26.74,0,0,0,1.3-4.37H89.22a30.49,30.49,0,0,0,1.41,4.37l8.79,24.38c.76,2.13,1.41,3.8,1.94,4.93ZM84,27.8,80.18,39.91H87.8Z"/><path class="cls-3" d="M115.66,49.58c-1.1,1.69-2,3.11-3,5H102c2.18-2.67,3-3.71,4.17-5.34l8.9-12.51-7.57-10.64c-1.26-1.83-2.48-3.41-4-5.19H114a35,35,0,0,0,3,5.34l3.08,4.7,3-4.74a33.47,33.47,0,0,0,3-5.3h10.41C135.05,22.69,134,24,132.62,26L125,36.66,134,49.21c1.3,1.82,2.43,3.28,4.13,5.34H127.35c-.76-1.41-1.54-2.82-2.91-5L120,42.74Z"/><path class="cls-3" d="M166.35,54.83a55.45,55.45,0,0,0-6.69-.28H146.94c-3.08,0-4.24,0-5.95.13a37.78,37.78,0,0,0,.32-5.92V26.67a43.19,43.19,0,0,0-.32-5.91c1.65,0,2.83.11,5.95.11h12.92a50.44,50.44,0,0,0,6-.28v7.57a48.43,48.43,0,0,0-6-.28H149.33v5.95h8.75a49.08,49.08,0,0,0,6.06-.28V41a51.12,51.12,0,0,0-6.06-.29h-8.75v6.82h10.44a55.87,55.87,0,0,0,6.6-.29Z"/><path class="cls-3" d="M177.88,43.58a5.33,5.33,0,0,0,1.06,3,5.87,5.87,0,0,0,4.73,1.89c3.11,0,5-1.41,5-3.63A3.06,3.06,0,0,0,187,42a33.67,33.67,0,0,0-6.07-1.66c-3.72-.82-5-1.3-6.52-2.34a9.15,9.15,0,0,1-3.93-7.78c0-6.23,5-10.16,13-10.16,5.13,0,9.06,1.58,11.31,4.61a11.35,11.35,0,0,1,2,4.86l-8.58.93c-.49-2.63-2-3.73-5-3.73-2.47,0-4.24,1.41-4.24,3.21a2.86,2.86,0,0,0,1.91,2.59c.81.36.81.36,5.66,1.41a19.28,19.28,0,0,1,6.36,2.22,9,9,0,0,1,4.36,8.25,10.17,10.17,0,0,1-2.82,7.45c-2.35,2.26-5.91,3.44-10.66,3.44a19.3,19.3,0,0,1-9-2,9.67,9.67,0,0,1-4.38-5.18,15.69,15.69,0,0,1-.89-3.77Z"/><path class="cls-3" d="M208.82,43.58a5.3,5.3,0,0,0,1,3,5.9,5.9,0,0,0,4.74,1.89c3.12,0,5-1.41,5-3.63A3,3,0,0,0,217.88,42a34.51,34.51,0,0,0-6.07-1.66c-3.73-.82-5-1.3-6.53-2.34a9.14,9.14,0,0,1-3.91-7.78c0-6.23,5-10.16,13-10.16,5.14,0,9.06,1.58,11.31,4.61a11.35,11.35,0,0,1,2,4.86l-8.58.93c-.48-2.63-1.94-3.73-5-3.73-2.47,0-4.24,1.41-4.24,3.21a2.86,2.86,0,0,0,1.91,2.59c.8.36.8.36,5.58,1.41a19.16,19.16,0,0,1,6.56,2.3,9.06,9.06,0,0,1,4.28,8.17,10.09,10.09,0,0,1-2.82,7.45c-2.35,2.26-5.91,3.44-10.65,3.44a19.34,19.34,0,0,1-9-2,9.57,9.57,0,0,1-4.35-5.18,14.79,14.79,0,0,1-.89-3.77Z"/></g></g></svg>