<svg xmlns="http://www.w3.org/2000/svg" viewBox="0 0 69.77 90.2"><defs><style>.cls-1,.cls-3{fill:#eee;}.cls-2{fill:#1c3660;}.cls-3{font-size:12.15px;font-family:Oxygen-Bold, Oxygen;font-weight:700;}</style></defs><title>Búsqueda QR</title><g id="Capa_2" data-name="Capa 2"><g id="Capa_1-2" data-name="Capa 1"><rect class="cls-1" width="69.77" height="73.95" rx="4.77"/><path class="cls-2" d="M28.94,11.12H16.23v12.7H28.94ZM26.4,21.28H18.78V13.66H26.4Z"/><rect class="cls-2" x="21.32" y="16.2" width="2.54" height="2.54"/><path class="cls-2" d="M44.19,11.12v12.7h12.7V11.12ZM54.35,21.28H46.73V13.66h7.62Z"/><rect class="cls-2" x="49.27" y="16.2" width="2.54" height="2.54"/><path class="cls-2" d="M16.23,51.78H28.94V39.07H16.23Zm2.55-10.17H26.4v7.63H18.78Z"/><rect class="cls-2" x="21.32" y="44.15" width="2.54" height="2.54"/><rect class="cls-2" x="36.56" y="11.12" width="5.08" height="2.54"/><polygon class="cls-2" points="36.56 21.28 39.1 21.28 39.1 18.74 41.65 18.74 41.65 16.2 34.02 16.2 34.02 13.66 31.48 13.66 31.48 16.2 31.48 17.47 31.48 18.74 36.56 18.74 36.56 21.28"/><rect class="cls-2" x="31.48" y="21.28" width="2.54" height="2.54"/><polygon class="cls-2" points="41.65 23.82 39.1 23.82 39.1 26.36 31.48 26.36 31.48 28.91 41.65 28.91 41.65 23.82"/><polygon class="cls-2" points="18.77 33.99 21.32 33.99 21.32 31.45 18.77 31.45 18.77 26.36 16.23 26.36 16.23 36.53 18.77 36.53 18.77 33.99"/><rect class="cls-2" x="21.32" y="26.36" width="2.54" height="2.54"/><polygon class="cls-2" points="31.48 36.53 36.56 36.53 36.56 33.99 34.02 33.99 34.02 31.45 28.94 31.45 28.94 26.36 26.4 26.36 26.4 31.45 23.86 31.45 23.86 36.53 26.4 36.53 26.4 33.99 27.67 33.99 28.94 33.99 31.48 33.99 31.48 36.53"/><rect class="cls-2" x="39.11" y="31.45" width="2.54" height="5.08"/><polygon class="cls-2" points="39.1 39.07 31.48 39.07 31.48 41.61 36.56 41.61 36.56 49.24 31.48 49.24 31.48 51.78 39.1 51.78 39.1 49.24 44.19 49.24 44.19 46.7 39.1 46.7 39.1 39.07"/><rect class="cls-2" x="31.48" y="44.15" width="2.54" height="2.54"/><rect class="cls-2" x="41.65" y="39.07" width="2.54" height="5.08"/><polygon class="cls-2" points="54.35 44.15 46.73 44.15 46.73 51.78 49.27 51.78 49.27 46.7 54.35 46.7 54.35 44.15"/><rect class="cls-2" x="51.81" y="49.24" width="5.08" height="2.54"/><rect class="cls-2" x="54.35" y="39.07" width="2.54" height="2.54"/><polygon class="cls-2" points="46.73 41.61 49.27 41.61 49.27 33.99 44.19 33.99 44.19 36.53 46.73 36.53 46.73 41.61"/><polygon class="cls-2" points="51.81 28.91 49.27 28.91 49.27 26.36 46.73 26.36 46.73 28.91 44.19 28.91 44.19 31.45 54.35 31.45 54.35 28.91 56.89 28.91 56.89 26.36 51.81 26.36 51.81 28.91"/><rect class="cls-2" x="51.81" y="33.99" width="5.08" height="2.54"/><path class="cls-2" d="M67.4,89.39h-65A2.37,2.37,0,0,1,0,87V61.81H69.77V87A2.37,2.37,0,0,1,67.4,89.39Z"/><text class="cls-3" transform="translate(8.07 73.6)">Búsqueda</text><text class="cls-3" transform="translate(16.07 86.3)">Con QR</text></g></g></svg>