<svg xmlns="http://www.w3.org/2000/svg" viewBox="0 0 14.19 12.38"><defs><style>.cls-1,.cls-2{fill:#fff;}.cls-2{fill-rule:evenodd;}</style></defs><title>camera</title><g id="Capa_2" data-name="Capa 2"><g id="Capa_1-2" data-name="Capa 1"><path class="cls-1" d="M9,6.72A1.89,1.89,0,1,1,7.09,4.83,1.89,1.89,0,0,1,9,6.72Z"/><path class="cls-2" d="M10.92,1.76a.26.26,0,0,1-.25-.23A1.82,1.82,0,0,0,8.88,0H5.31A1.8,1.8,0,0,0,3.52,1.53a.26.26,0,0,1-.25.23H2.36A2.36,2.36,0,0,0,0,4.12V10a2.37,2.37,0,0,0,2.36,2.37h9.46A2.37,2.37,0,0,0,14.19,10V4.12a2.37,2.37,0,0,0-2.37-2.36Zm-.28,5A3.55,3.55,0,1,1,7.09,3.17,3.54,3.54,0,0,1,10.64,6.72Z"/></g></g></svg>