<svg xmlns="http://www.w3.org/2000/svg" viewBox="0 0 31.78 27.73"><defs><style>.cls-1,.cls-2{fill:#203763;}.cls-2{fill-rule:evenodd;}</style></defs><title>Camera</title><g id="Capa_2" data-name="Capa 2"><g id="Capa_1-2" data-name="Capa 1"><path class="cls-1" d="M20.13,15.05a4.24,4.24,0,1,1-4.24-4.24A4.24,4.24,0,0,1,20.13,15.05Z"/><path class="cls-2" d="M24.46,3.94a.6.6,0,0,1-.57-.51,4,4,0,0,0-4-3.43h-8a4,4,0,0,0-4,3.43.6.6,0,0,1-.56.51h-2A5.3,5.3,0,0,0,0,9.24v13.2a5.29,5.29,0,0,0,5.3,5.29H26.49a5.29,5.29,0,0,0,5.29-5.29V9.24a5.3,5.3,0,0,0-5.29-5.3Zm-.62,11.11a7.95,7.95,0,1,1-7.95-8A7.94,7.94,0,0,1,23.84,15.05Z"/></g></g></svg>