<svg xmlns="http://www.w3.org/2000/svg" viewBox="0 0 17.2 20.97"><defs><style>.cls-1{fill:#fafafa;}</style></defs><title>Consultas_1</title><g id="Capa_2" data-name="Capa 2"><g id="Capa_1-2" data-name="Capa 1"><path class="cls-1" d="M17.2,5.34V19a2,2,0,0,1-2,2H6a2,2,0,0,1-2-2V10.1a5.14,5.14,0,0,0,.88.08,6.26,6.26,0,0,0,.63,0V19a.51.51,0,0,0,.51.51h9.2a.5.5,0,0,0,.5-.51V5.34a.5.5,0,0,0-.5-.51h-5A5.41,5.41,0,0,0,10,3.32h5.21A2,2,0,0,1,17.2,5.34ZM4.76,9.52A4.76,4.76,0,1,1,9.52,4.76,4.76,4.76,0,0,1,4.76,9.52Zm0-1A3.75,3.75,0,1,0,1,4.76,3.76,3.76,0,0,0,4.76,8.51ZM7.61,5.26a.5.5,0,0,0,.51-.5.51.51,0,0,0-.51-.51H5.26v-2a.5.5,0,0,0-.5-.5.51.51,0,0,0-.51.5V4.76a.5.5,0,0,0,.51.5Zm5.82,4.09H8a.51.51,0,1,0,0,1h5.46a.51.51,0,1,0,0-1Zm0,3.06H8a.51.51,0,1,0,0,1h5.46a.51.51,0,0,0,0-1Zm0,3.19H8a.5.5,0,1,0,0,1h5.46a.5.5,0,0,0,0-1Z"/></g></g></svg>