<svg xmlns="http://www.w3.org/2000/svg" viewBox="0 0 60.37 60.37"><defs><style>.cls-1{fill:#989898;}</style></defs><g id="Capa_2" data-name="Capa 2"><g id="Capa_1-2" data-name="Capa 1"><path class="cls-1" d="M60.37,0H55.65V1.89h2.83V5.66h1.89ZM50.94,0H46.22V1.89h4.72ZM41.5,0H36.79V1.89H41.5ZM32.07,0H27.35V1.89h4.72ZM22.64,0H17.92V1.89h4.72ZM13.21,0H8.49V1.89h4.72ZM3.77,0H0V1.89H3.77ZM1.89,5.66H0v4.72H1.89Zm0,9.43H0v4.72H1.89Zm0,9.43H0v4.72H1.89Zm0,9.44H0v4.71H1.89Zm0,9.43H0v4.72H1.89Zm0,9.43H0v4.72H1.89ZM6.6,58.48H1.89v1.89H6.6Zm9.44,0H11.32v1.89H16Zm9.43,0H20.75v1.89h4.72Zm9.43,0H30.18v1.89H34.9Zm9.43,0H39.62v1.89h4.71Zm9.43,0H49.05v1.89h4.71Zm6.61-.94H58.48v.94h0v1.89h1.89Zm0-9.43H58.48v4.71h1.89Zm0-9.44H58.48v4.72h1.89Zm0-9.43H58.48V34h1.89Zm0-9.43H58.48v4.71h1.89Zm0-9.43H58.48v4.71h1.89Z"/></g></g></svg>