<svg xmlns="http://www.w3.org/2000/svg" viewBox="0 0 18.17 11.54"><defs><style>.cls-1{fill:#1c3660;}</style></defs><title>Correo</title><g id="Capa_2" data-name="Capa 2"><g id="Capa_1-2" data-name="Capa 1"><path class="cls-1" d="M9.09,7.24a.64.64,0,0,1-.38-.12L.28,1.18A.64.64,0,0,1,0,.46.65.65,0,0,1,.65,0H17.52a.63.63,0,0,1,.62.46.63.63,0,0,1-.24.72L9.46,7.12A.63.63,0,0,1,9.09,7.24ZM2.7,1.3,9.09,5.8l6.38-4.5Z"/><path class="cls-1" d="M17.52,11.54H.65A.66.66,0,0,1,0,10.89V.65A.63.63,0,0,1,.35.08.62.62,0,0,1,1,.12L9.09,5.8,17.15.12a.62.62,0,0,1,.67,0,.63.63,0,0,1,.35.57V10.89A.66.66,0,0,1,17.52,11.54ZM1.3,10.23H16.87V1.9L9.46,7.12a.65.65,0,0,1-.75,0L1.3,1.9Z"/></g></g></svg>