<svg xmlns="http://www.w3.org/2000/svg" viewBox="0 0 451.55 456.6"><defs><style>.cls-1{fill:#fff;}</style></defs><g id="Capa_2" data-name="Capa 2"><g id="Capa_1-2" data-name="Capa 1"><path class="cls-1" d="M440.49,197.12l-50.63-14a4.82,4.82,0,0,1-2.11-2.26l-13.39-32.23a4.45,4.45,0,0,1,.07-2.51l26.25-45.69a15.94,15.94,0,0,0-1.61-17.69c-.28-.33-6.79-8-12.56-13.74S373.07,56.68,372.8,56.42a16.48,16.48,0,0,0-17.72-1.72L309.4,80.64a5,5,0,0,1-3-.14L274.14,67.06a4.61,4.61,0,0,1-1.77-1.85L258.63,12.83C257.16,7.51,251.77,0,244.35,0h-36C200.88,0,195.46,7.44,194,12.74L180,64.12a5.33,5.33,0,0,1-2.31,2.47L145.44,80.12a14.47,14.47,0,0,1-2.55,0L97.28,54c-5.23-3-13.07-2.28-17.69,1.59-.33.28-8,6.77-13.67,12.55C60,73.94,53.46,81.64,53.13,82a16.15,16.15,0,0,0-1.59,17.61l26,45.67a4.53,4.53,0,0,1-.09,3L63.86,180.64A4.45,4.45,0,0,1,62,182.37L11.39,196.12A15.79,15.79,0,0,0,.07,210.42L0,246.73a15.76,15.76,0,0,0,11.13,14l50.61,14a4.77,4.77,0,0,1,2,2.27l13.44,32.31a4.15,4.15,0,0,1-.07,2.47L50.87,357.45a16,16,0,0,0,1.63,17.68c.28.33,6.76,7.94,12.62,14,5.74,5.58,13.31,12.09,13.58,12.32,4.58,4,12.49,4.74,17.69,1.73l45.69-25.9a4.85,4.85,0,0,1,3.1.07l32.32,13.51a4.94,4.94,0,0,1,1.75,1.8l13.64,51.71c1.52,5.8,7.28,12.25,14.28,12.25h36c6.93,0,12.72-6.38,14.33-12.11l14-51.13a5,5,0,0,1,2.31-2.26l32.25-13.49a15.61,15.61,0,0,1,2.56,0l45.55,26.23c5.23,3,13.07,2.28,17.64-1.59.33-.28,8-6.72,13.95-12.65,5.63-5.71,12.18-13.34,12.51-13.69A16,16,0,0,0,400,358.27l-26-45.71a4.67,4.67,0,0,1,.14-3.08l13.46-32.25a4.61,4.61,0,0,1,1.87-1.77l50.8-13.67a16,16,0,0,0,11.22-14.26l.07-36.42a15.56,15.56,0,0,0-11.06-14Zm-4.16,50-50.82,13.67c-5.44,1.49-10.47,6.26-12.08,11.06L360.36,303.1a19.17,19.17,0,0,0,.42,16.89l26,46c-.07.07-6.48,7.53-11.69,12.83a161.14,161.14,0,0,1-13.25,11.76l-45.55-26.25a18.35,18.35,0,0,0-9-2.21,17.56,17.56,0,0,0-7.46,1.51l-31.2,13A19.08,19.08,0,0,0,256.9,389l-14,51.31c-.07.16-.26,1-.44,1H208c-.16,0-.3-.81-.35-.91L194,388.85c-1.45-5.32-6.3-10.59-11.06-12.18l-31.41-13.18a19.61,19.61,0,0,0-16.82.44l-46,25.92c-.07-.07-7.54-6.49-12.79-11.57-5.34-5.51-11.71-13-11.81-13.33L90.4,319.3c2.77-4.86,3-12,.67-16.38l-13-31.27A19.06,19.06,0,0,0,65.82,260L15.22,246.4l.07-35.55,50.58-13.72c5.39-1.38,10.6-6.23,12.2-11l13.14-31.31a19.14,19.14,0,0,0-.42-16.9L64.89,92.15c0-.19,0-.82-.09-.82h0c.07,0,6.38-7.26,11.88-12.67a131.27,131.27,0,0,1,13-11.58l45.6,26.25a18.15,18.15,0,0,0,8.86,2.22A17.8,17.8,0,0,0,151.71,94l31.22-13.09c5.81-1.87,10.38-7.89,11.72-12.67L208.6,16.82c.12-.4.56-1.56.93-1.56H243c.4,0,.81,1.21.93,1.56l13.74,52.34C259.09,74.5,264,79.7,268.7,81.29L300,94.36a18.1,18.1,0,0,0,7.94,1.75,18.5,18.5,0,0,0,8.93-2.19l46-25.93c.07.07,7.54,6.42,12.81,11.79a169,169,0,0,1,11.79,13.14l-26.28,45.71c-2.75,4.82-3,11.92-.72,16.35l13,31.27a19.27,19.27,0,0,0,12.23,11.6l50.65,13.6Z"/><path class="cls-1" d="M225.75,150.66a78.39,78.39,0,1,0,55.51,23.1,77.93,77.93,0,0,0-55.51-23.1Zm44.56,123a63,63,0,1,1,18.56-44.59A62.63,62.63,0,0,1,270.31,273.65Z"/></g></g></svg>