<svg xmlns="http://www.w3.org/2000/svg" viewBox="0 0 69.77 91.67"><defs><style>.cls-1,.cls-4{fill:#eee;}.cls-2{fill:#d9d7ca;}.cls-3{fill:#1c3660;}.cls-4{font-size:12.15px;font-family:Oxygen-Bold, Oxygen;font-weight:700;}.cls-5{letter-spacing:0em;}.cls-6{letter-spacing:0em;}.cls-7{fill:#cae0ea;}.cls-8{fill:#fafafa;}</style></defs><title>Exportar citas</title><g id="Capa_2" data-name="Capa 2"><g id="Capa_1-2" data-name="Capa 1"><path class="cls-1" d="M49.46,0H2.37C1.06,0,0,1.06,0,3.12V89.24a2.44,2.44,0,0,0,2.37,1.62h65a2.44,2.44,0,0,0,2.37-1.62V21.06c0-1.13-.15-1.5-.42-1.76L50.47.42A1.42,1.42,0,0,0,49.46,0Z"/><polygon class="cls-2" points="50.3 0.24 50.3 19.47 69.52 19.47 50.3 0.24"/><path class="cls-3" d="M67.4,90.86h-65A2.37,2.37,0,0,1,0,88.49V63.28H69.77V88.49A2.37,2.37,0,0,1,67.4,90.86Z"/><text class="cls-4" transform="translate(12.07 75.07)">Expor<tspan class="cls-5" x="33.13" y="0">t</tspan><tspan class="cls-6" x="37.89" y="0">ar</tspan></text><text class="cls-4" transform="translate(21.07 87.77)">Citas</text><path class="cls-7" d="M52.46,50.52H36.17A1.16,1.16,0,0,1,35,49.35V26.08a1.16,1.16,0,0,1,1.16-1.17H52.46a1.17,1.17,0,0,1,1.17,1.17V49.35A1.17,1.17,0,0,1,52.46,50.52Z"/><path class="cls-3" d="M40.83,31.9H36.17a1.17,1.17,0,0,1,0-2.33h4.66a1.17,1.17,0,0,1,0,2.33Z"/><path class="cls-3" d="M40.83,36.55H36.17a1.17,1.17,0,0,1,0-2.33h4.66a1.17,1.17,0,0,1,0,2.33Z"/><path class="cls-3" d="M40.83,41.21H36.17a1.17,1.17,0,0,1,0-2.33h4.66a1.17,1.17,0,0,1,0,2.33Z"/><path class="cls-3" d="M40.83,45.86H36.17a1.17,1.17,0,0,1,0-2.33h4.66a1.17,1.17,0,0,1,0,2.33Z"/><path class="cls-3" d="M47.81,31.9H45.48a1.17,1.17,0,0,1,0-2.33h2.33a1.17,1.17,0,0,1,0,2.33Z"/><path class="cls-3" d="M47.81,36.55H45.48a1.17,1.17,0,0,1,0-2.33h2.33a1.17,1.17,0,0,1,0,2.33Z"/><path class="cls-3" d="M47.81,41.21H45.48a1.17,1.17,0,0,1,0-2.33h2.33a1.17,1.17,0,0,1,0,2.33Z"/><path class="cls-3" d="M47.81,45.86H45.48a1.17,1.17,0,0,1,0-2.33h2.33a1.17,1.17,0,0,1,0,2.33Z"/><path class="cls-3" d="M36.91,20.52a1.13,1.13,0,0,0-.95-.24L17.33,23.77a1.16,1.16,0,0,0-.95,1.14V50.52a1.16,1.16,0,0,0,.95,1.14L36,55.15a.75.75,0,0,0,.21,0A1.15,1.15,0,0,0,37.33,54V21.42A1.17,1.17,0,0,0,36.91,20.52Z"/><path class="cls-8" d="M32.39,41.61,28.71,37.4l3.72-4.79a1.16,1.16,0,0,0-.2-1.63,1.17,1.17,0,0,0-1.64.2l-3.44,4.43-2.91-3.32a1.16,1.16,0,0,0-1.64-.11,1.18,1.18,0,0,0-.11,1.65l3.2,3.65-3.24,4.18a1.15,1.15,0,0,0,.2,1.63,1.14,1.14,0,0,0,.72.24,1.18,1.18,0,0,0,.92-.44l3-3.82,3.39,3.86a1.13,1.13,0,0,0,.87.4,1.15,1.15,0,0,0,.88-1.92Z"/></g></g></svg>