<svg xmlns="http://www.w3.org/2000/svg" viewBox="0 0 13.05 13.05"><defs><style>.cls-1{fill:#eee;}</style></defs><title>Fecha</title><g id="Capa_2" data-name="Capa 2"><g id="Capa_1-2" data-name="Capa 1"><path class="cls-1" d="M11.52,1h-.61V0h-1V1H3.16V0h-1V1H1.53A1.54,1.54,0,0,0,0,2.55v9a1.53,1.53,0,0,0,1.53,1.53h10a1.52,1.52,0,0,0,1.53-1.53v-9A1.53,1.53,0,0,0,11.52,1ZM12,11.52a.5.5,0,0,1-.51.51h-10A.51.51,0,0,1,1,11.52V4.79H12Zm0-7.75H1V2.55A.51.51,0,0,1,1.53,2h.61v1h1V2H9.89v1h1V2h.61a.51.51,0,0,1,.51.51Z"/><rect class="cls-1" x="1.94" y="5.86" width="1.02" height="1.02"/><rect class="cls-1" x="3.98" y="5.86" width="1.02" height="1.02"/><rect class="cls-1" x="6.02" y="5.86" width="1.02" height="1.02"/><rect class="cls-1" x="8.06" y="5.86" width="1.02" height="1.02"/><rect class="cls-1" x="10.1" y="5.86" width="1.02" height="1.02"/><rect class="cls-1" x="1.94" y="7.9" width="1.02" height="1.02"/><rect class="cls-1" x="3.98" y="7.9" width="1.02" height="1.02"/><rect class="cls-1" x="6.02" y="7.9" width="1.02" height="1.02"/><rect class="cls-1" x="8.06" y="7.9" width="1.02" height="1.02"/><rect class="cls-1" x="1.94" y="9.94" width="1.02" height="1.02"/><rect class="cls-1" x="3.98" y="9.94" width="1.02" height="1.02"/><rect class="cls-1" x="6.02" y="9.94" width="1.02" height="1.02"/><rect class="cls-1" x="8.06" y="9.94" width="1.02" height="1.02"/><rect class="cls-1" x="10.1" y="7.9" width="1.02" height="1.02"/></g></g></svg>