<svg xmlns="http://www.w3.org/2000/svg" viewBox="0 0 478.51 262.32"><defs><style>.cls-1{fill:#eee;}.cls-2{fill:#c4cce3;}.cls-3{fill:#f6f7f9;}</style></defs><title>Foto</title><g id="Capa_2" data-name="Capa 2"><g id="Capa_1-2" data-name="Capa 1"><rect class="cls-1" width="478.51" height="262.32" rx="14.66"/><rect class="cls-2" x="130.28" y="17.65" width="217.39" height="224.41"/><path class="cls-3" d="M239,73.26a36.89,36.89,0,0,0-18.13,4.18c-19.43,10.45-18.45,19.43-18.45,28.18s-.73,26-.73,26c-4.87-2.23-2.43,2.91-2.43,11.17s4.61,10.93,4.61,10.93c.73,17,9.07,21.7,9.07,21.7l-1.62,17.32c-7.29.16-3.24,6.15-5.67,7.45s-2.75,7.93-2.75,7.93c-70.92,26.72-64.12,37.41-64.12,37.41H339.19s6.81-10.69-64.12-37.41c0,0-.32-6.63-2.75-7.93s1.62-7.29-5.67-7.45L265,175.41s8.34-4.7,9.07-21.7c0,0,4.62-2.67,4.62-10.93s2.43-13.4-2.43-11.17c0,0-.73-17.25-.73-26s1-17.73-18.46-28.18A36.87,36.87,0,0,0,239,73.26Z"/></g></g></svg>