<svg xmlns="http://www.w3.org/2000/svg" viewBox="0 0 211.2 49.44"><defs><style>.cls-1{fill:#153453;}</style></defs><title>Grupo Bafar Logo</title><g id="Capa_2" data-name="Capa 2"><g id="Capa_1-2" data-name="Capa 1"><path class="cls-1" d="M25.54,8.81c.69-5.87,8-3.32,9.82-7a.28.28,0,0,1,.54,0c.93,4.4-5.72,5.41-5.95,8.43,0,.23.15.46.54.15,1-.77,6.34-5.8,11.05-2.78.24.15.47.69-.15.69-.23,0-4.87.78-5.49,3.48-.39,1.7,5.34.62,8.82-1.78.54-.31.69.16.61.39-1.08,5.34-5.25,4.56-6.18,6.19l.08.31c5.41-2.32,6.88,5.33,11.05,5a.31.31,0,0,1,.23.54c-3.32,3-7.57-2.24-10.28-.92-.23.07-.31.38.08.54,1.16.46,8.27,2.63,7.89,8.19,0,.31-.39.78-.7.24-.16-.24-3.09-3.87-5.8-3-1.7.54,2.16,4.95,5.95,6.8.55.31.16.7,0,.78-5.1,1.78-6.57-2.32-8.42-2.32l-.24.23C43.71,36.5,37.83,41.6,40.15,45a.3.3,0,0,1-.31.47c-4.33-1.39-1.85-7.66-4.33-9.36-.15-.15-.46-.08-.38.39C35.28,37.73,37,44.93,32,47.4c-.24.16-.85.08-.55-.46.16-.24,1.86-4.64-.23-6.5C29.87,39.2,28,44.77,28.24,49c.08.62-.46.54-.61.38-4.1-3.55-1.32-6.88-2.25-8.5l-.31-.08c-.69,5.88-8,3.33-9.82,7a.28.28,0,0,1-.54,0c-.93-4.41,5.72-5.42,6-8.43,0-.23-.16-.47-.55-.16-1,.78-6.34,5.8-11,2.79-.24-.16-.47-.7.15-.7.23,0,4.87-.69,5.49-3.48.39-1.7-5.33-.62-8.81,1.78-.55.31-.7-.15-.62-.39,1.08-5.33,5.26-4.56,6.18-6.18l-.07-.31C6,35,4.5,27.37.33,27.68a.31.31,0,0,1-.23-.54c3.32-3,7.57,2.24,10.28.93.23-.08.31-.39-.08-.54C9.14,27.06,2,24.9,2.42,19.33c0-.31.38-.77.69-.23.16.23,3.1,3.86,5.8,3,1.7-.54-2.16-4.94-5.95-6.8a.41.41,0,0,1,0-.77c5.1-1.78,6.57,2.32,8.43,2.32l.23-.24C6.9,13.07,12.78,8,10.46,4.56A.36.36,0,0,1,10.77,4c4.33,1.39,1.85,7.65,4.33,9.36.15.15.46.07.39-.39-.16-1.24-1.86-8.43,3.17-10.9.23-.16.85-.08.54.46-.16.23-1.86,4.64.23,6.5,1.31,1.16,3.17-4.33,2.94-8.59-.08-.62.46-.46.62-.38C27.08,3.63,24.3,7,25.23,8.58Zm2.7,23.9c-.07-.08-.3-.08-.46-.08-.31.23-.31,1-.77,1.16a1.12,1.12,0,0,1-.54.08H24.22a1.12,1.12,0,0,1-.54-.08c-.46-.23-.46-.93-.77-1.16-.08,0-.31,0-.39.08a6.27,6.27,0,0,0-.46,1.78v.38c.08.39,1.47,1.4,3.32,1.4a4.13,4.13,0,0,0,3.33-1.4c.08-.23.08-.38,0-.38A7.21,7.21,0,0,0,28.24,32.71Zm-3.4-2a.83.83,0,0,0,.08-.23v-.93a6.35,6.35,0,0,0-2.86-1.78c-3-.77-4.18.15-2.4,3.17a2.18,2.18,0,0,0,.77.46c.31.31.7,1,1.09,1.24.07.08.31,0,.31-.08a1.93,1.93,0,0,1,.23-.92A4.08,4.08,0,0,0,24.84,30.7Zm3.87-3a7.07,7.07,0,0,0-2.86,1.78v.93a.78.78,0,0,0,.07.23,4.39,4.39,0,0,0,2.71.93,2,2,0,0,1,.23.93c0,.07.23.15.31.07a13.21,13.21,0,0,0,1.08-1.23c.08-.08.7-.31.78-.47C32.88,27.84,31.72,27,28.71,27.68Zm6.18-5c0-1,0-4.1-1.23-4.49-2.79-.77-4.1-2.32-8.28-2.32S20,17.32,17.11,18.17c-1.24.39-1.24,3.4-1.24,4.49,0,.3.31,1.54,3.09,2.08.86.16,1.24,1.55,2.71,2a5.07,5.07,0,0,1,.62.24c.23.07.39-.16.08-.31a2,2,0,0,1-.39-.31c-.31-.31-.23-.7.16-.7.15,0,1.7-.15,3.24-.15s3.1.15,3.25.15c.39,0,.46.47.08.7a2,2,0,0,1-.39.31c-.23.23-.08.38.08.31a5.8,5.8,0,0,0,.62-.24c1.39-.46,1.85-1.85,2.7-2C34.59,24.2,34.89,23,34.89,22.66Z"/><path class="cls-1" d="M17.19,20.41a18.72,18.72,0,0,1,5.25.23c.62.16.86.08.7,1.4a1.48,1.48,0,0,1-.08.62c-.23.85-.54.69-.69.07-.16-.46-.39-.85-1-.62-4.25,1.4-4.25-1.39-4.25-1.39Z"/><path class="cls-1" d="M33.5,20.64s-.07,2.79-4.25,1.4c-.62-.24-.93.15-1,.62s-.46.77-.69-.08c-.08-.23,0-.47-.08-.62-.08-1.32.08-1.16.7-1.39a18.79,18.79,0,0,1,5.26-.23Z"/><path class="cls-1" d="M70.23,23.12a1.07,1.07,0,0,0-.38-.93A4.67,4.67,0,0,0,68,22H66.21a3.17,3.17,0,0,0-1.93.39,1.92,1.92,0,0,0-.46,1.54v1.39a2,2,0,0,0,.46,1.47,3.35,3.35,0,0,0,1.93.39h1.7a4.74,4.74,0,0,0,1.78-.23.79.79,0,0,0,.47-.77V25.9H66.6v-2h6.65v3.17a2,2,0,0,1-1,1.94,7.94,7.94,0,0,1-3.55.54H65.36a13.79,13.79,0,0,1-2.24-.16,3,3,0,0,1-1.24-.54A2.59,2.59,0,0,1,61,27.68,5.41,5.41,0,0,1,60.8,26V23.35a3.58,3.58,0,0,1,1-2.94,6,6,0,0,1,3.64-.85h3.32a16.11,16.11,0,0,1,2.4.16,2.56,2.56,0,0,1,1.24.46,2,2,0,0,1,.69.93,4.24,4.24,0,0,1,.24,1.55v.54Z"/><path class="cls-1" d="M83.69,19.64a5.11,5.11,0,0,1,3.17.7,3.24,3.24,0,0,1,.85,2.55,3.56,3.56,0,0,1-.39,1.85,2.06,2.06,0,0,1-1.23.85,2.13,2.13,0,0,1,1.16.62,2,2,0,0,1,.38,1.24v2h-3V28a1,1,0,0,0-.24-.77A1.66,1.66,0,0,0,83.3,27H78.82v2.55h-3V19.72ZM83.61,22H78.89v2.39h4.8a.94.94,0,0,0,.85-.31,1.61,1.61,0,0,0,.23-1,1.25,1.25,0,0,0-.23-.85A1.78,1.78,0,0,0,83.61,22Z"/><path class="cls-1" d="M90.26,19.64h3v5.8c0,.7.15,1.08.46,1.31a3.53,3.53,0,0,0,1.93.31h1.71a2.9,2.9,0,0,0,1.7-.38,1.61,1.61,0,0,0,.46-1.32v-5.8h3v6.73a2.92,2.92,0,0,1-.93,2.47,5.57,5.57,0,0,1-3.25.7H95.06a7.08,7.08,0,0,1-3.72-.7,2.76,2.76,0,0,1-1-2.47Z"/><path class="cls-1" d="M112.69,19.72a10.39,10.39,0,0,1,1.62.07,4.13,4.13,0,0,1,1,.31,2.31,2.31,0,0,1,1.08,1.16,5.45,5.45,0,0,1,.31,2.09,4.51,4.51,0,0,1-.7,2.86,2.84,2.84,0,0,1-2.24.85H108.2v2.4h-3V19.64Zm-.16,2.39h-4.41v2.48h4.41a1,1,0,0,0,.85-.31,1.81,1.81,0,0,0,.24-1.08.9.9,0,0,0-1.09-1.09Z"/><path class="cls-1" d="M123.59,29.62a17.77,17.77,0,0,1-2.55-.16,3.5,3.5,0,0,1-1.32-.54,3.14,3.14,0,0,1-.85-1.08,6.06,6.06,0,0,1-.23-1.78V23.43a6.36,6.36,0,0,1,.23-1.93,2.53,2.53,0,0,1,.85-1.16,4.19,4.19,0,0,1,1.32-.55,19.39,19.39,0,0,1,2.47-.15H127a19.44,19.44,0,0,1,2.48.15,2.87,2.87,0,0,1,1.31.55,2,2,0,0,1,.78,1.16,6.14,6.14,0,0,1,.23,1.85v2.71a6.14,6.14,0,0,1-.23,1.85,3.09,3.09,0,0,1-.78,1.16,4.13,4.13,0,0,1-1.31.55,19.44,19.44,0,0,1-2.48.15Zm.85-2.48h1.93a3.8,3.8,0,0,0,2.09-.39,1.85,1.85,0,0,0,.54-1.47V23.89a1.64,1.64,0,0,0-.54-1.47,4.13,4.13,0,0,0-2.09-.38h-1.93a4,4,0,0,0-2.09.38,2,2,0,0,0-.54,1.55v1.39a1.74,1.74,0,0,0,.54,1.47A4.15,4.15,0,0,0,124.44,27.14Z"/><path class="cls-1" d="M151,29.62h-9.27V19.79h8.81a3.84,3.84,0,0,1,2.48.7,2.58,2.58,0,0,1,.77,2.09,2.38,2.38,0,0,1-.39,1.31,2.35,2.35,0,0,1-1.08.78,1.67,1.67,0,0,1,1.31.69A2.14,2.14,0,0,1,154,27a2.33,2.33,0,0,1-.77,2A3.29,3.29,0,0,1,151,29.62Zm-.77-2.25a.85.85,0,0,0,.62-.23,1,1,0,0,0,.23-.7.87.87,0,0,0-.23-.61.74.74,0,0,0-.62-.24h-5.57v1.78ZM150,23.58a.59.59,0,0,0,.54-.23.74.74,0,0,0,.23-.62.87.87,0,0,0-.23-.62.71.71,0,0,0-.54-.23H144.7v1.63Z"/><path class="cls-1" d="M158.78,29.62h-3.25l5.33-9.83h3.79l5.26,9.83h-3.25L165.73,28h-5.95Zm2.08-4h3.79l-1.85-3.48Z"/><polygon class="cls-1" points="182.36 22.27 174.63 22.27 174.63 23.97 181.9 23.97 181.9 26.37 174.63 26.37 174.63 29.69 171.61 29.69 171.61 19.87 182.28 19.87 182.36 22.27"/><path class="cls-1" d="M186.38,29.69h-3.25l5.42-9.82h3.79l5.25,9.82h-3.24l-.93-1.62h-6Zm2.17-4h3.79l-1.86-3.48Z"/><path class="cls-1" d="M207.18,20a5.19,5.19,0,0,1,3.17.69,3.28,3.28,0,0,1,.85,2.56,3.68,3.68,0,0,1-.38,1.85,2.08,2.08,0,0,1-1.24.85,2.1,2.1,0,0,1,1.16.62,2,2,0,0,1,.39,1.24v2h-3V28.3a.8.8,0,0,0-.31-.77,1.66,1.66,0,0,0-1.08-.23h-4.49v2.47h-3V20Zm-.15,2.4h-4.72v2.39h4.8a1,1,0,0,0,.85-.31,1.61,1.61,0,0,0,.23-1,1.25,1.25,0,0,0-.23-.85A1.65,1.65,0,0,0,207,22.35Z"/><path class="cls-1" d="M70.23,23.12a1.07,1.07,0,0,0-.38-.93A4.67,4.67,0,0,0,68,22H66.21a3.17,3.17,0,0,0-1.93.39,1.92,1.92,0,0,0-.46,1.54v1.39a2,2,0,0,0,.46,1.47,3.35,3.35,0,0,0,1.93.39h1.7a4.74,4.74,0,0,0,1.78-.23.79.79,0,0,0,.47-.77V25.9H66.6v-2h6.65v3.17a2,2,0,0,1-1,1.94,7.94,7.94,0,0,1-3.55.54H65.36a13.79,13.79,0,0,1-2.24-.16,3,3,0,0,1-1.24-.54A2.59,2.59,0,0,1,61,27.68,5.41,5.41,0,0,1,60.8,26V23.35a3.58,3.58,0,0,1,1-2.94,6,6,0,0,1,3.64-.85h3.32a16.11,16.11,0,0,1,2.4.16,2.56,2.56,0,0,1,1.24.46,2,2,0,0,1,.69.93,4.24,4.24,0,0,1,.24,1.55v.54Z"/><path class="cls-1" d="M83.69,19.64a5.11,5.11,0,0,1,3.17.7,3.24,3.24,0,0,1,.85,2.55,3.56,3.56,0,0,1-.39,1.85,2.06,2.06,0,0,1-1.23.85,2.13,2.13,0,0,1,1.16.62,2,2,0,0,1,.38,1.24v2h-3V28a1,1,0,0,0-.24-.77A1.66,1.66,0,0,0,83.3,27H78.82v2.55h-3V19.72ZM83.61,22H78.89v2.39h4.8a.94.94,0,0,0,.85-.31,1.61,1.61,0,0,0,.23-1,1.25,1.25,0,0,0-.23-.85A1.78,1.78,0,0,0,83.61,22Z"/><path class="cls-1" d="M90.26,19.64h3v5.8c0,.7.15,1.08.46,1.31a3.53,3.53,0,0,0,1.93.31h1.71a2.9,2.9,0,0,0,1.7-.38,1.61,1.61,0,0,0,.46-1.32v-5.8h3v6.73a2.92,2.92,0,0,1-.93,2.47,5.57,5.57,0,0,1-3.25.7H95.06a7.08,7.08,0,0,1-3.72-.7,2.76,2.76,0,0,1-1-2.47Z"/><path class="cls-1" d="M112.69,19.72a10.39,10.39,0,0,1,1.62.07,4.13,4.13,0,0,1,1,.31,2.31,2.31,0,0,1,1.08,1.16,5.45,5.45,0,0,1,.31,2.09,4.51,4.51,0,0,1-.7,2.86,2.84,2.84,0,0,1-2.24.85H108.2v2.4h-3V19.64Zm-.16,2.39h-4.41v2.48h4.41a1,1,0,0,0,.85-.31,1.81,1.81,0,0,0,.24-1.08.9.9,0,0,0-1.09-1.09Z"/><path class="cls-1" d="M123.59,29.62a17.77,17.77,0,0,1-2.55-.16,3.5,3.5,0,0,1-1.32-.54,3.14,3.14,0,0,1-.85-1.08,6.06,6.06,0,0,1-.23-1.78V23.43a6.36,6.36,0,0,1,.23-1.93,2.53,2.53,0,0,1,.85-1.16,4.19,4.19,0,0,1,1.32-.55,19.39,19.39,0,0,1,2.47-.15H127a19.44,19.44,0,0,1,2.48.15,2.87,2.87,0,0,1,1.31.55,2,2,0,0,1,.78,1.16,6.14,6.14,0,0,1,.23,1.85v2.71a6.14,6.14,0,0,1-.23,1.85,3.09,3.09,0,0,1-.78,1.16,4.13,4.13,0,0,1-1.31.55,19.44,19.44,0,0,1-2.48.15Zm.85-2.48h1.93a3.8,3.8,0,0,0,2.09-.39,1.85,1.85,0,0,0,.54-1.47V23.89a1.64,1.64,0,0,0-.54-1.47,4.13,4.13,0,0,0-2.09-.38h-1.93a4,4,0,0,0-2.09.38,2,2,0,0,0-.54,1.55v1.39a1.74,1.74,0,0,0,.54,1.47A4.15,4.15,0,0,0,124.44,27.14Z"/><path class="cls-1" d="M151,29.62h-9.27V19.79h8.81a3.84,3.84,0,0,1,2.48.7,2.58,2.58,0,0,1,.77,2.09,2.38,2.38,0,0,1-.39,1.31,2.35,2.35,0,0,1-1.08.78,1.67,1.67,0,0,1,1.31.69A2.14,2.14,0,0,1,154,27a2.33,2.33,0,0,1-.77,2A3.29,3.29,0,0,1,151,29.62Zm-.77-2.25a.85.85,0,0,0,.62-.23,1,1,0,0,0,.23-.7.87.87,0,0,0-.23-.61.74.74,0,0,0-.62-.24h-5.57v1.78ZM150,23.58a.59.59,0,0,0,.54-.23.74.74,0,0,0,.23-.62.87.87,0,0,0-.23-.62.71.71,0,0,0-.54-.23H144.7v1.63Z"/><path class="cls-1" d="M158.78,29.62h-3.25l5.33-9.83h3.79l5.26,9.83h-3.25L165.73,28h-5.95Zm2.08-4h3.79l-1.85-3.48Z"/><polygon class="cls-1" points="182.36 22.27 174.63 22.27 174.63 23.97 181.9 23.97 181.9 26.37 174.63 26.37 174.63 29.69 171.61 29.69 171.61 19.87 182.28 19.87 182.36 22.27"/><path class="cls-1" d="M186.38,29.69h-3.25l5.42-9.82h3.79l5.25,9.82h-3.24l-.93-1.62h-6Zm2.17-4h3.79l-1.86-3.48Z"/><path class="cls-1" d="M207.18,20a5.19,5.19,0,0,1,3.17.69,3.28,3.28,0,0,1,.85,2.56,3.68,3.68,0,0,1-.38,1.85,2.08,2.08,0,0,1-1.24.85,2.1,2.1,0,0,1,1.16.62,2,2,0,0,1,.39,1.24v2h-3V28.3a.8.8,0,0,0-.31-.77,1.66,1.66,0,0,0-1.08-.23h-4.49v2.47h-3V20Zm-.15,2.4h-4.72v2.39h4.8a1,1,0,0,0,.85-.31,1.61,1.61,0,0,0,.23-1,1.25,1.25,0,0,0-.23-.85A1.65,1.65,0,0,0,207,22.35Z"/></g></g></svg>