<svg xmlns="http://www.w3.org/2000/svg" xmlns:xlink="http://www.w3.org/1999/xlink" viewBox="0 0 122.37 32.21"><defs><style>.cls-1{fill:url(#Super_Soft_Black_Vignette);}.cls-2{fill:url(#Super_Soft_Black_Vignette-2);}.cls-3{fill:url(#Super_Soft_Black_Vignette-3);}.cls-4{fill:url(#Super_Soft_Black_Vignette-4);}.cls-5{fill:url(#Super_Soft_Black_Vignette-5);}.cls-6{fill:url(#Super_Soft_Black_Vignette-6);}.cls-7{fill:url(#Ecosat_degradado_3);}.cls-8{fill:url(#Ecosat_degradado_3-2);}.cls-9{fill:#1e1f1d;}</style><radialGradient id="Super_Soft_Black_Vignette" cx="76.48" cy="18.84" r="3.44" gradientUnits="userSpaceOnUse"><stop offset="0.57" stop-color="#0e0c0e"/><stop offset="0.8" stop-color="#0e0c0e"/><stop offset="1" stop-color="#0e0c0e"/></radialGradient><radialGradient id="Super_Soft_Black_Vignette-2" cx="83.95" cy="18.84" r="3.93" xlink:href="#Super_Soft_Black_Vignette"/><radialGradient id="Super_Soft_Black_Vignette-3" cx="92.97" cy="18.84" r="4.17" xlink:href="#Super_Soft_Black_Vignette"/><radialGradient id="Super_Soft_Black_Vignette-4" cx="101.14" cy="18.84" r="3.56" xlink:href="#Super_Soft_Black_Vignette"/><radialGradient id="Super_Soft_Black_Vignette-5" cx="108.88" cy="18.79" r="4.06" xlink:href="#Super_Soft_Black_Vignette"/><radialGradient id="Super_Soft_Black_Vignette-6" cx="116.09" cy="18.84" r="3.61" xlink:href="#Super_Soft_Black_Vignette"/><linearGradient id="Ecosat_degradado_3" x1="42.94" y1="13.18" x2="61.99" y2="13.18" gradientUnits="userSpaceOnUse"><stop offset="0" stop-color="#142034"/><stop offset="0.16" stop-color="#294460"/><stop offset="0.36" stop-color="#3f698d"/><stop offset="0.54" stop-color="#5087b1"/><stop offset="0.72" stop-color="#5c9ccb"/><stop offset="0.88" stop-color="#63a9db"/><stop offset="1" stop-color="#66ade0"/></linearGradient><linearGradient id="Ecosat_degradado_3-2" x1="48.29" y1="20.62" x2="71.33" y2="20.62" xlink:href="#Ecosat_degradado_3"/></defs><title>Powered by Ecosat</title><g id="Capa_2" data-name="Capa 2"><g id="Capa_1-2" data-name="Capa 1"><path class="cls-1" d="M75.48,16.37V18h2.65v1.63H75.48V21.3h3.63v1.62H73.85V14.75h5.26v1.62Z"/><path class="cls-2" d="M87.62,21.56a5.16,5.16,0,0,1-1.49,1.06,3.77,3.77,0,0,1-1.69.38,4,4,0,0,1-1.71-.35,4.22,4.22,0,0,1-1.32-.94,4.24,4.24,0,0,1-1.12-2.86,4,4,0,0,1,.34-1.68,4.22,4.22,0,0,1,.92-1.33A4.1,4.1,0,0,1,82.89,15a4,4,0,0,1,1.55-.31,4,4,0,0,1,1.62.34,4.38,4.38,0,0,1,1.43,1l-1.13,1.14a3,3,0,0,0-.91-.63,2.39,2.39,0,0,0-1-.22,2.49,2.49,0,0,0-1,.2,2.7,2.7,0,0,0-.81.55,2.5,2.5,0,0,0-.54.81,2.62,2.62,0,0,0-.2,1,2.45,2.45,0,0,0,.2,1,2.54,2.54,0,0,0,2.33,1.55,2.39,2.39,0,0,0,1.09-.25,3.79,3.79,0,0,0,1-.71Z"/><path class="cls-3" d="M93,23a4.07,4.07,0,0,1-1.53-.29,4.24,4.24,0,0,1-1.34-.83,4.12,4.12,0,0,1-1.3-3,4.09,4.09,0,0,1,.32-1.58A4.18,4.18,0,0,1,91.31,15a4.15,4.15,0,0,1,3.22,0,4.17,4.17,0,0,1,1.33.86,4.24,4.24,0,0,1,.93,1.33,4.15,4.15,0,0,1,0,3.24A4.54,4.54,0,0,1,96,21.74a4.29,4.29,0,0,1-1.32.92A4,4,0,0,1,93,23Zm0-6.71a2.54,2.54,0,0,0-1,.2,2.48,2.48,0,0,0-.81.55,2.53,2.53,0,0,0-.55.81,2.62,2.62,0,0,0-.2,1,2.3,2.3,0,0,0,.21,1,2.53,2.53,0,0,0,.55.81,2.57,2.57,0,0,0,.8.54,2.55,2.55,0,0,0,2,0,2.57,2.57,0,0,0,.8-.54,2.7,2.7,0,0,0,.55-.81,2.61,2.61,0,0,0,0-2,2.7,2.7,0,0,0-.55-.81,2.38,2.38,0,0,0-.81-.55A2.44,2.44,0,0,0,93,16.29Z"/><path class="cls-4" d="M101.19,23a3.66,3.66,0,0,1-2-.58h0a3.59,3.59,0,0,1-.56-.43l-.34-.34,1.21-1.12a1.73,1.73,0,0,0,.27.25,2.67,2.67,0,0,0,.41.28,3.12,3.12,0,0,0,.49.23,1.46,1.46,0,0,0,.49.09,1.37,1.37,0,0,0,.4-.05,1.42,1.42,0,0,0,.36-.14,1,1,0,0,0,.27-.26.76.76,0,0,0,.1-.41.45.45,0,0,0-.06-.21,1.14,1.14,0,0,0-.22-.24,3.54,3.54,0,0,0-.44-.27,7.11,7.11,0,0,0-.7-.31c-.33-.13-.63-.26-.91-.4a3.37,3.37,0,0,1-.73-.51,2.07,2.07,0,0,1-.48-.67,2.09,2.09,0,0,1-.17-.86,2.26,2.26,0,0,1,.19-.94,2.13,2.13,0,0,1,.53-.76,2.45,2.45,0,0,1,.83-.5,3,3,0,0,1,1.07-.18,2.72,2.72,0,0,1,.67.08,4.22,4.22,0,0,1,.69.21,3.41,3.41,0,0,1,.64.3,2.46,2.46,0,0,1,.49.34l-1,1.26-.45-.28-.46-.2a1.6,1.6,0,0,0-.53-.09,1.3,1.3,0,0,0-.76.19.66.66,0,0,0-.28.56.48.48,0,0,0,.1.29,1.09,1.09,0,0,0,.27.25,3.55,3.55,0,0,0,.39.2,3.8,3.8,0,0,0,.47.18,9,9,0,0,1,1.18.54,3.31,3.31,0,0,1,.77.59,1.81,1.81,0,0,1,.42.66,2.45,2.45,0,0,1,.12.78,2.32,2.32,0,0,1-.21,1,2.49,2.49,0,0,1-.58.79,2.85,2.85,0,0,1-.88.52A3,3,0,0,1,101.19,23Z"/><path class="cls-5" d="M109.2,14.67l3.68,8.25h-1.79l-.66-1.49h-3.12l-.33.75c-.12.27-.23.52-.32.74h-1.78l3.63-8.25Zm.5,5.13-.84-1.89L108,19.8Z"/><path class="cls-6" d="M119.15,16.37h-2.24v6.55h-1.62V16.37H113V14.75h6.13Z"/><path class="cls-7" d="M47,22.77l-4-4a.3.3,0,0,1,0-.44L57.77,3.6,62,7.82Z"/><path class="cls-8" d="M57.81,32.21a3.05,3.05,0,0,1-2.17-.9L48.29,24,63.22,9l4,4.08L57,23.33l1.19,1.19L68.44,14.26l1.9,1.9a3.4,3.4,0,0,1,0,4.8L60,31.31A3.07,3.07,0,0,1,57.81,32.21Z"/><path class="cls-9" d="M121.34,17.34a1.09,1.09,0,0,1-.75-.28,1,1,0,0,1-.29-.71V16.2a.88.88,0,0,1,.3-.68,1.1,1.1,0,0,1,1.47,0,.9.9,0,0,1,.3.68v.15a1,1,0,0,1-.29.71A1.06,1.06,0,0,1,121.34,17.34Zm.83-1V16.2a.7.7,0,0,0-.24-.54.82.82,0,0,0-.59-.22.88.88,0,0,0-.43.1.74.74,0,0,0-.3.28.7.7,0,0,0-.11.38v.15a.75.75,0,0,0,.24.57.82.82,0,0,0,.6.22.84.84,0,0,0,.6-.22A.78.78,0,0,0,122.17,16.35Zm-1,.43H121v-1h.47a.29.29,0,0,1,.22.09.31.31,0,0,1,0,.4.22.22,0,0,1-.14.11l.23.42h-.23l-.2-.4h-.18Zm0-.88v.34h.16c.15,0,.22,0,.22-.17a.13.13,0,0,0,0-.12.2.2,0,0,0-.14,0Z"/><path d="M0,.45A9.12,9.12,0,0,1,1.69.31,2.79,2.79,0,0,1,3.6.88,1.83,1.83,0,0,1,4.2,2.3a2,2,0,0,1-.53,1.45,2.81,2.81,0,0,1-2.08.75,3,3,0,0,1-.71-.06V7.16H0ZM.88,3.72a2.54,2.54,0,0,0,.73.08c1.06,0,1.7-.53,1.7-1.45S2.67,1,1.71,1a4.67,4.67,0,0,0-.83.06Z"/><path d="M9.51,4.68A2.39,2.39,0,0,1,7.08,7.27,2.32,2.32,0,0,1,4.74,4.76,2.38,2.38,0,0,1,7.16,2.17,2.31,2.31,0,0,1,9.51,4.68Zm-3.87.05c0,1.07.61,1.88,1.48,1.88S8.6,5.82,8.6,4.71c0-.83-.41-1.87-1.47-1.87S5.64,3.81,5.64,4.73Z"/><path d="M10.91,2.28l.65,2.48c.14.55.27,1.06.37,1.56h0c.11-.49.27-1,.44-1.55l.79-2.49h.75l.76,2.44c.17.58.32,1.1.43,1.6h0c.09-.5.22-1,.38-1.59l.7-2.45h.88L15.52,7.16h-.81L14,4.84a14.67,14.67,0,0,1-.43-1.61h0a16.24,16.24,0,0,1-.45,1.61l-.78,2.32h-.81L10,2.28Z"/><path d="M18.38,4.88a1.56,1.56,0,0,0,1.67,1.7,3.42,3.42,0,0,0,1.36-.25l.15.63a4,4,0,0,1-1.63.31,2.27,2.27,0,0,1-2.4-2.46,2.38,2.38,0,0,1,2.3-2.64,2.06,2.06,0,0,1,2,2.3,2.07,2.07,0,0,1,0,.41ZM21,4.25a1.26,1.26,0,0,0-1.22-1.44,1.47,1.47,0,0,0-1.37,1.44Z"/><path d="M22.94,3.8c0-.57,0-1.06,0-1.52h.78l0,1h0A1.5,1.5,0,0,1,25.1,2.17a1,1,0,0,1,.25,0V3a1.37,1.37,0,0,0-.3,0,1.24,1.24,0,0,0-1.19,1.13,2.72,2.72,0,0,0,0,.42v2.6h-.88Z"/><path d="M26.64,4.88a1.56,1.56,0,0,0,1.67,1.7,3.4,3.4,0,0,0,1.35-.25l.16.63a4,4,0,0,1-1.63.31,2.27,2.27,0,0,1-2.4-2.46,2.37,2.37,0,0,1,2.29-2.64,2.06,2.06,0,0,1,2,2.3,2.07,2.07,0,0,1,0,.41Zm2.6-.63A1.27,1.27,0,0,0,28,2.81a1.46,1.46,0,0,0-1.36,1.44Z"/><path d="M35.41,0V5.91c0,.43,0,.92,0,1.25h-.79l0-.84h0a1.79,1.79,0,0,1-1.65.95,2.22,2.22,0,0,1-2.1-2.47A2.34,2.34,0,0,1,33,2.17a1.64,1.64,0,0,1,1.48.74h0V0Zm-.88,4.27a1.64,1.64,0,0,0,0-.38,1.32,1.32,0,0,0-1.29-1c-.92,0-1.46.81-1.46,1.88s.49,1.81,1.45,1.81A1.33,1.33,0,0,0,34.48,5.5a1.58,1.58,0,0,0,.05-.38Z"/><path d="M39,7.16c0-.33,0-.82,0-1.25V0h.88V3.07h0a1.81,1.81,0,0,1,1.66-.9,2.19,2.19,0,0,1,2.06,2.49,2.32,2.32,0,0,1-2.19,2.61,1.75,1.75,0,0,1-1.64-.91h0l0,.8Zm.92-1.95a1.12,1.12,0,0,0,0,.32,1.36,1.36,0,0,0,1.33,1c.93,0,1.48-.76,1.48-1.88s-.51-1.82-1.46-1.82A1.41,1.41,0,0,0,40,4a1.38,1.38,0,0,0-.05.37Z"/><path d="M45,2.28l1.07,2.89c.11.32.23.7.31,1h0c.09-.28.2-.66.32-1l1-2.87h.94L47.31,5.76a7.46,7.46,0,0,1-1.67,3.06,2.5,2.5,0,0,1-1.09.57l-.22-.74a2.33,2.33,0,0,0,.78-.44,2.9,2.9,0,0,0,.74-1A.67.67,0,0,0,45.92,7a.53.53,0,0,0-.07-.22l-1.8-4.51Z"/></g></g></svg>