<svg xmlns="http://www.w3.org/2000/svg" viewBox="0 0 149.49 149.49"><defs><style>.cls-1{fill:#fff;}</style></defs><title>QR Blanco</title><g id="Capa_2" data-name="Capa 2"><g id="Capa_1-2" data-name="Capa 1"><path class="cls-1" d="M46.71,0H0V46.71H46.71ZM37.37,37.37h-28v-28h28Z"/><rect class="cls-1" x="18.69" y="18.69" width="9.34" height="9.34"/><path class="cls-1" d="M102.77,0V46.71h46.72V0Zm37.37,37.37h-28v-28h28Z"/><rect class="cls-1" x="121.46" y="18.69" width="9.34" height="9.34"/><path class="cls-1" d="M0,149.49H46.71V102.77H0Zm9.34-37.37h28v28h-28Z"/><rect class="cls-1" x="18.69" y="121.46" width="9.34" height="9.34"/><rect class="cls-1" x="74.74" width="18.69" height="9.34"/><polygon class="cls-1" points="74.74 37.37 84.09 37.37 84.09 28.03 93.43 28.03 93.43 18.69 65.4 18.69 65.4 9.34 56.06 9.34 56.06 18.69 56.06 23.36 56.06 28.03 74.74 28.03 74.74 37.37"/><rect class="cls-1" x="56.06" y="37.37" width="9.34" height="9.34"/><polygon class="cls-1" points="93.43 46.72 84.09 46.72 84.09 56.06 56.06 56.06 56.06 65.4 93.43 65.4 93.43 46.72"/><polygon class="cls-1" points="9.34 84.09 18.69 84.09 18.69 74.74 9.34 74.74 9.34 56.06 0 56.06 0 93.43 9.34 93.43 9.34 84.09"/><rect class="cls-1" x="18.69" y="56.06" width="9.34" height="9.34"/><polygon class="cls-1" points="56.06 93.43 74.74 93.43 74.74 84.09 65.4 84.09 65.4 74.74 46.72 74.74 46.72 56.06 37.37 56.06 37.37 74.74 28.03 74.74 28.03 93.43 37.37 93.43 37.37 84.09 42.04 84.09 46.72 84.09 56.06 84.09 56.06 93.43"/><rect class="cls-1" x="84.09" y="74.74" width="9.34" height="18.69"/><polygon class="cls-1" points="84.09 102.77 56.06 102.77 56.06 112.12 74.74 112.12 74.74 140.15 56.06 140.15 56.06 149.49 84.09 149.49 84.09 140.15 102.77 140.15 102.77 130.8 84.09 130.8 84.09 102.77"/><rect class="cls-1" x="56.06" y="121.46" width="9.34" height="9.34"/><rect class="cls-1" x="93.43" y="102.77" width="9.34" height="18.69"/><polygon class="cls-1" points="140.15 121.46 112.12 121.46 112.12 149.49 121.46 149.49 121.46 130.8 140.15 130.8 140.15 121.46"/><rect class="cls-1" x="130.8" y="140.14" width="18.69" height="9.34"/><rect class="cls-1" x="140.14" y="102.77" width="9.34" height="9.34"/><polygon class="cls-1" points="112.12 112.12 121.46 112.12 121.46 84.09 102.77 84.09 102.77 93.43 112.12 93.43 112.12 112.12"/><polygon class="cls-1" points="130.8 65.4 121.46 65.4 121.46 56.06 112.12 56.06 112.12 65.4 102.77 65.4 102.77 74.74 140.15 74.74 140.15 65.4 149.49 65.4 149.49 56.06 130.8 56.06 130.8 65.4"/><rect class="cls-1" x="130.8" y="84.09" width="18.69" height="9.34"/></g></g></svg>