<svg xmlns="http://www.w3.org/2000/svg" viewBox="0 0 115 115"><title>Qr</title><g id="Capa_2" data-name="Capa 2"><g id="Capa_1-2" data-name="Capa 1"><path d="M35.94,0H0V35.94H35.94ZM28.75,28.75H7.19V7.19H28.75Z"/><rect x="14.37" y="14.37" width="7.19" height="7.19"/><path d="M79.06,0V35.94H115V0Zm28.75,28.75H86.25V7.19h21.56Z"/><rect x="93.43" y="14.37" width="7.19" height="7.19"/><path d="M0,115H35.94V79.06H0ZM7.19,86.25H28.75v21.56H7.19Z"/><rect x="14.37" y="93.43" width="7.19" height="7.19"/><rect x="57.5" width="14.37" height="7.19"/><polygon points="57.5 28.75 64.69 28.75 64.69 21.56 71.87 21.56 71.87 14.38 50.31 14.38 50.31 7.19 43.12 7.19 43.12 14.38 43.12 17.97 43.12 21.56 57.5 21.56 57.5 28.75"/><rect x="43.12" y="28.75" width="7.19" height="7.19"/><polygon points="71.87 35.94 64.69 35.94 64.69 43.12 43.12 43.12 43.12 50.31 71.87 50.31 71.87 35.94"/><polygon points="7.19 64.69 14.38 64.69 14.38 57.5 7.19 57.5 7.19 43.12 0 43.12 0 71.87 7.19 71.87 7.19 64.69"/><rect x="14.37" y="43.12" width="7.19" height="7.19"/><polygon points="43.12 71.87 57.5 71.87 57.5 64.69 50.31 64.69 50.31 57.5 35.94 57.5 35.94 43.12 28.75 43.12 28.75 57.5 21.56 57.5 21.56 71.87 28.75 71.87 28.75 64.69 32.34 64.69 35.94 64.69 43.12 64.69 43.12 71.87"/><rect x="64.69" y="57.5" width="7.19" height="14.37"/><polygon points="64.69 79.06 43.12 79.06 43.12 86.25 57.5 86.25 57.5 107.81 43.12 107.81 43.12 115 64.69 115 64.69 107.81 79.06 107.81 79.06 100.62 64.69 100.62 64.69 79.06"/><rect x="43.12" y="93.43" width="7.19" height="7.19"/><rect x="71.87" y="79.06" width="7.19" height="14.37"/><polygon points="107.81 93.43 86.25 93.43 86.25 115 93.43 115 93.43 100.62 107.81 100.62 107.81 93.43"/><rect x="100.62" y="107.81" width="14.37" height="7.19"/><rect x="107.81" y="79.06" width="7.19" height="7.19"/><polygon points="86.25 86.25 93.43 86.25 93.43 64.69 79.06 64.69 79.06 71.87 86.25 71.87 86.25 86.25"/><polygon points="100.62 50.31 93.43 50.31 93.43 43.12 86.25 43.12 86.25 50.31 79.06 50.31 79.06 57.5 107.81 57.5 107.81 50.31 115 50.31 115 43.12 100.62 43.12 100.62 50.31"/><rect x="100.62" y="64.69" width="14.37" height="7.19"/></g></g></svg>