<svg xmlns="http://www.w3.org/2000/svg" viewBox="0 0 27.8 27.8"><defs><style>.cls-1{fill:#1c3660;}</style></defs><title>QR</title><g id="Capa_2" data-name="Capa 2"><g id="Capa_1-2" data-name="Capa 1"><path class="cls-1" d="M10.63,26.16H3a1.4,1.4,0,0,1-1-.41,1.38,1.38,0,0,1-.4-1v-7.6a.84.84,0,0,0-.41-.71.8.8,0,0,0-.82,0,.84.84,0,0,0-.41.71v7.6a3,3,0,0,0,.89,2.14A3,3,0,0,0,3,27.8h7.61a.84.84,0,0,0,.71-.41.85.85,0,0,0,0-.82.84.84,0,0,0-.71-.41Z"/><path class="cls-1" d="M27,16.35a.82.82,0,0,0-.82.82v7.6a1.4,1.4,0,0,1-1.39,1.39h-7.6a.84.84,0,0,0-.71.41.8.8,0,0,0,0,.82.84.84,0,0,0,.71.41h7.6a3,3,0,0,0,3-3v-7.6a.83.83,0,0,0-.24-.58.84.84,0,0,0-.58-.24Z"/><path class="cls-1" d="M24.77,0h-7.6a.84.84,0,0,0-.71.41.8.8,0,0,0,0,.82.84.84,0,0,0,.71.41h7.6a1.38,1.38,0,0,1,1,.4,1.4,1.4,0,0,1,.41,1v7.61a.84.84,0,0,0,.41.71.85.85,0,0,0,.82,0,.84.84,0,0,0,.41-.71V3A3,3,0,0,0,26.91.89,3,3,0,0,0,24.77,0Z"/><path class="cls-1" d="M.82,11.45a.86.86,0,0,0,.58-.24.86.86,0,0,0,.24-.58V3A1.37,1.37,0,0,1,3,1.64h7.61a.84.84,0,0,0,.71-.41.85.85,0,0,0,0-.82A.84.84,0,0,0,10.63,0H3A3,3,0,0,0,.89.89,3,3,0,0,0,0,3v7.6a.86.86,0,0,0,.24.58.83.83,0,0,0,.58.24Z"/><path class="cls-1" d="M18.8,13.9A4.91,4.91,0,1,1,13.9,9a4.9,4.9,0,0,1,4.9,4.91"/></g></g></svg>