<svg xmlns="http://www.w3.org/2000/svg" viewBox="0 0 22.37 22.37"><defs><style>.cls-1{fill:#fff;}</style></defs><title>Registro_2</title><g id="Capa_2" data-name="Capa 2"><g id="Capa_1-2" data-name="Capa 1"><path class="cls-1" d="M16.31,22.37a6.06,6.06,0,1,1,6.06-6.06A6.07,6.07,0,0,1,16.31,22.37Zm0-11.19a5.13,5.13,0,1,0,5.12,5.13A5.13,5.13,0,0,0,16.31,11.18Z"/><path class="cls-1" d="M15.38,18.64a.44.44,0,0,1-.33-.14l-1.87-1.86a.47.47,0,0,1,.66-.66l1.51,1.51,2.94-3.35a.45.45,0,0,1,.65-.05.46.46,0,0,1,0,.66l-3.26,3.73a.5.5,0,0,1-.34.16Z"/><path class="cls-1" d="M8.85,19.57H2.33A2.33,2.33,0,0,1,0,17.24V5.13A2.33,2.33,0,0,1,2.33,2.8H4.19a.46.46,0,0,1,.47.46.47.47,0,0,1-.47.47H2.33a1.4,1.4,0,0,0-1.4,1.4V17.24a1.4,1.4,0,0,0,1.4,1.4H8.85a.47.47,0,1,1,0,.93Z"/><path class="cls-1" d="M15.38,8.39a.47.47,0,0,1-.47-.47V5.13a1.4,1.4,0,0,0-1.4-1.4H11.65a.47.47,0,0,1-.47-.47.46.46,0,0,1,.47-.46h1.86a2.33,2.33,0,0,1,2.33,2.33V7.92A.47.47,0,0,1,15.38,8.39Z"/><path class="cls-1" d="M10.72,5.59H5.13a1.4,1.4,0,0,1-1.4-1.4V2.33a.47.47,0,0,1,.46-.47H5.64a2.33,2.33,0,0,1,4.56,0h1.45a.46.46,0,0,1,.46.47V4.19A1.4,1.4,0,0,1,10.72,5.59ZM4.66,2.8V4.19a.47.47,0,0,0,.47.47h5.59a.47.47,0,0,0,.46-.47V2.8H9.79a.47.47,0,0,1-.47-.47,1.4,1.4,0,0,0-2.8,0,.47.47,0,0,1-.46.47Z"/><path class="cls-1" d="M12.58,8.39H3.26a.46.46,0,0,1-.46-.47.45.45,0,0,1,.46-.46h9.32a.46.46,0,0,1,.47.46A.47.47,0,0,1,12.58,8.39Z"/><path class="cls-1" d="M9.79,11.18H3.26a.47.47,0,0,1,0-.93H9.79a.47.47,0,0,1,0,.93Z"/><path class="cls-1" d="M7.92,14H3.26a.47.47,0,0,1,0-.93H7.92a.47.47,0,1,1,0,.93Z"/></g></g></svg>