<svg xmlns="http://www.w3.org/2000/svg" viewBox="0 0 6.12 6.9"><defs><style>.cls-1{fill:#fff;}</style></defs><title>Trash</title><g id="Capa_2" data-name="Capa 2"><g id="Capa_1-2" data-name="Capa 1"><path class="cls-1" d="M5.66,1.87H.45L1,6.6a.33.33,0,0,0,.32.3H4.81a.33.33,0,0,0,.33-.3Z"/><path class="cls-1" d="M5.64.34H.48A.47.47,0,0,0,0,.81H0a.47.47,0,0,0,.48.48H5.64A.48.48,0,0,0,6.12.81h0A.48.48,0,0,0,5.64.34Z"/><path class="cls-1" d="M3.4.34a.34.34,0,0,1-.68,0,.34.34,0,0,1,.68,0Z"/></g></g></svg>